<svg version="1.1" xmlns="http://www.w3.org/2000/svg" viewBox="0 0 1480.510650230075 606.7122767707481" width="1480.510650230075" height="606.7122767707481" filter="invert(93%) hue-rotate(180deg)">
  <!-- svg-source:excalidraw -->
  
  <defs>
    <style class="style-fonts">
      @font-face {
        font-family: "Virgil";
        src: url("https://excalidraw.com/Virgil.woff2");
      }
      @font-face {
        font-family: "Cascadia";
        src: url("https://excalidraw.com/Cascadia.woff2");
      }
      @font-face {
        font-family: "Assistant";
        src: url("https://excalidraw.com/Assistant-Regular.woff2");
      }
    </style>
    
  </defs>
  <rect x="0" y="0" width="1480.510650230075" height="606.7122767707481" fill="#f5faff"></rect><g stroke-opacity="0.4" fill-opacity="0.4" stroke-linecap="round" transform="translate(668.5023409242579 10) rotate(0 88.3353586226118 17.82429859928368)"><path d="M8.91 0 C59.33 4.03, 114.39 -2.67, 167.76 0 C173.54 0.36, 178.94 1.8, 176.67 8.91 C179.11 18.5, 176.97 22.14, 176.67 26.74 C174.81 32.53, 175.16 38.69, 167.76 35.65 C127.95 32.58, 81.24 37.17, 8.91 35.65 C4.73 36.41, 1.32 33.77, 0 26.74 C2.69 23.1, -2.13 18.01, 0 8.91 C0.44 5.05, -0.04 -1.42, 8.91 0" stroke="none" stroke-width="0" fill="#ffffff"></path><path d="M8.91 0 C70.74 -0.87, 135.18 1.42, 167.76 0 M8.91 0 C53.77 -1.24, 96.21 -0.76, 167.76 0 M167.76 0 C172.39 0.96, 175.31 3.5, 176.67 8.91 M167.76 0 C175.39 -0.24, 175.12 3.56, 176.67 8.91 M176.67 8.91 C175.3 13.41, 175.64 20.12, 176.67 26.74 M176.67 8.91 C175.8 15.06, 177.09 21.3, 176.67 26.74 M176.67 26.74 C178.15 30.95, 172.38 37.42, 167.76 35.65 M176.67 26.74 C175 33.49, 173.66 33.61, 167.76 35.65 M167.76 35.65 C123.42 36.84, 77.53 33.6, 8.91 35.65 M167.76 35.65 C111.35 37.8, 54.22 37.62, 8.91 35.65 M8.91 35.65 C1.05 35.87, -1.67 31.41, 0 26.74 M8.91 35.65 C0.78 36.76, 2.26 30.54, 0 26.74 M0 26.74 C1.69 21.73, 0.9 14.63, 0 8.91 M0 26.74 C-0.9 21.92, 0.44 18.12, 0 8.91 M0 8.91 C-0.19 4.87, 4.67 -1.74, 8.91 0 M0 8.91 C0.48 1.52, 1.38 -0.8, 8.91 0" stroke="#1971c2" stroke-width="2" fill="none"></path></g><g stroke-opacity="0.4" fill-opacity="0.4" transform="translate(676.9254986191352 17.82429859928368) rotate(0 79.91220092773449 10)"><text x="79.91220092773438" y="14.016" font-family="Virgil, Segoe UI Emoji" font-size="16px" fill="#1971c2" text-anchor="middle" style="white-space: pre;" direction="ltr" dominant-baseline="alphabetic">Partitioning/Sharding</text></g><g stroke-opacity="0.4" fill-opacity="0.4" stroke-linecap="round" transform="translate(400.0265572580938 90.14977693658182) rotate(0 44.538836280308374 25)"><path d="M12.5 0 C24.11 -3.12, 38.78 -3.23, 76.58 0 C87.6 -2.53, 92.34 7.37, 89.08 12.5 C86.64 17.18, 91.96 28.09, 89.08 37.5 C85.51 43.3, 87.57 48.31, 76.58 50 C50.36 47.46, 28.08 51.62, 12.5 50 C2.37 50.89, -2.29 44.48, 0 37.5 C-2.16 30.9, -0.54 21.14, 0 12.5 C-0.2 2.71, 5.74 -1.75, 12.5 0" stroke="none" stroke-width="0" fill="#ffffff"></path><path d="M12.5 0 C34.6 -1.76, 54.28 1.81, 76.58 0 M12.5 0 C33.64 -0.21, 57.04 -0.12, 76.58 0 M76.58 0 C85.88 -1.74, 88.61 2.48, 89.08 12.5 M76.58 0 C86.19 -1.81, 87.95 2.28, 89.08 12.5 M89.08 12.5 C90.14 18.34, 90.91 23.78, 89.08 37.5 M89.08 12.5 C89.27 20.82, 89.37 31.02, 89.08 37.5 M89.08 37.5 C89.23 44.05, 86.03 48.3, 76.58 50 M89.08 37.5 C89.85 43.94, 83.35 48.13, 76.58 50 M76.58 50 C64.1 51.67, 48.26 49.55, 12.5 50 M76.58 50 C57.08 50.57, 37.75 50.7, 12.5 50 M12.5 50 C5.39 49.07, -0.17 43.98, 0 37.5 M12.5 50 C4.18 51.45, -1.78 45.1, 0 37.5 M0 37.5 C-1.14 30.25, -0.33 21.6, 0 12.5 M0 37.5 C0.33 30.3, -0.46 21.66, 0 12.5 M0 12.5 C1.83 2.18, 4.36 -1.31, 12.5 0 M0 12.5 C-2.3 3.26, 5.4 -2.13, 12.5 0" stroke="#1971c2" stroke-width="2" fill="none"></path></g><g stroke-opacity="0.4" fill-opacity="0.4" transform="translate(410.8853169392812 95.14977693658182) rotate(0 33.680076599121094 20)"><text x="33.680076599121094" y="14.016" font-family="Virgil, Segoe UI Emoji" font-size="16px" fill="#1971c2" text-anchor="middle" style="white-space: pre;" direction="ltr" dominant-baseline="alphabetic">Vertical </text><text x="33.680076599121094" y="34.016" font-family="Virgil, Segoe UI Emoji" font-size="16px" fill="#1971c2" text-anchor="middle" style="white-space: pre;" direction="ltr" dominant-baseline="alphabetic">Sharding</text></g><g stroke-opacity="0.4" fill-opacity="0.4" stroke-linecap="round" transform="translate(801.376535827178 89.67502934588515) rotate(0 51.714537681024694 25)"><path d="M12.5 0 C42.27 -1.29, 66.96 2.07, 90.93 0 C99.83 -0.11, 104.05 7.63, 103.43 12.5 C104.85 23.81, 106.38 29.65, 103.43 37.5 C106.19 46.03, 97.96 46.79, 90.93 50 C66.37 48.78, 48.5 47.78, 12.5 50 C1.41 51.56, 1.6 48.03, 0 37.5 C0.42 30.23, 3.68 24.32, 0 12.5 C-0.27 5.26, 6.85 -1.1, 12.5 0" stroke="none" stroke-width="0" fill="#ffffff"></path><path d="M12.5 0 C35.6 1.25, 57.92 2.13, 90.93 0 M12.5 0 C35.2 0.29, 57.06 0.72, 90.93 0 M90.93 0 C97.76 -0.27, 104.74 4.02, 103.43 12.5 M90.93 0 C98.88 1.94, 102.63 3.55, 103.43 12.5 M103.43 12.5 C103.71 19.95, 102.27 26.92, 103.43 37.5 M103.43 12.5 C102.92 17.74, 103.06 23.86, 103.43 37.5 M103.43 37.5 C103.87 45.74, 97.72 48.58, 90.93 50 M103.43 37.5 C101.77 43.75, 100.88 48.66, 90.93 50 M90.93 50 C65.55 47.82, 44.29 50.82, 12.5 50 M90.93 50 C73.79 49.97, 55.49 50.28, 12.5 50 M12.5 50 C3.36 49.59, 1.13 47.53, 0 37.5 M12.5 50 C3.31 47.74, -0.62 47.26, 0 37.5 M0 37.5 C-1.78 27.36, -1.1 21.25, 0 12.5 M0 37.5 C-0.87 30.91, -1.13 25.4, 0 12.5 M0 12.5 C-0.28 4.61, 2.75 -0.82, 12.5 0 M0 12.5 C-1.47 3.03, 3.67 2.12, 12.5 0" stroke="#1971c2" stroke-width="2" fill="none"></path></g><g stroke-opacity="0.4" fill-opacity="0.4" transform="translate(810.3549742650384 94.67502934588515) rotate(0 42.73609924316406 20)"><text x="42.73609924316406" y="14.016" font-family="Virgil, Segoe UI Emoji" font-size="16px" fill="#1971c2" text-anchor="middle" style="white-space: pre;" direction="ltr" dominant-baseline="alphabetic">Horizontal </text><text x="42.73609924316406" y="34.016" font-family="Virgil, Segoe UI Emoji" font-size="16px" fill="#1971c2" text-anchor="middle" style="white-space: pre;" direction="ltr" dominant-baseline="alphabetic">Sharding</text></g><g stroke-opacity="0.4" fill-opacity="0.4" transform="translate(198.3646041000302 91.13952885392234) rotate(0 100.3202133178711 20)"><text x="0" y="14.016" font-family="Virgil, Segoe UI Emoji" font-size="16px" fill="#2f9e44" text-anchor="start" style="white-space: pre;" direction="ltr" dominant-baseline="alphabetic">(faster for columns with </text><text x="0" y="34.016" font-family="Virgil, Segoe UI Emoji" font-size="16px" fill="#2f9e44" text-anchor="start" style="white-space: pre;" direction="ltr" dominant-baseline="alphabetic">very wide text; blobs)</text></g><g stroke-opacity="0.4" fill-opacity="0.4" transform="translate(172.49742772448258 67.81467708116111) rotate(0 129.87228393554688 10)"><text x="0" y="14.016" font-family="Virgil, Segoe UI Emoji" font-size="16px" fill="#e03131" text-anchor="start" style="white-space: pre;" direction="ltr" dominant-baseline="alphabetic">(suitable for manual partitioning)</text></g><g stroke-opacity="0.4" fill-opacity="0.4" transform="translate(853.585949466873 68.3953631230712) rotate(0 100.4962158203125 10)"><text x="0" y="14.016" font-family="Virgil, Segoe UI Emoji" font-size="16px" fill="#2f9e44" text-anchor="start" style="white-space: pre;" direction="ltr" dominant-baseline="alphabetic">(suitable for automation)</text></g><g stroke-linecap="round"><g stroke-opacity="0.4" fill-opacity="0.4" transform="translate(691.0098230116296 47.61057285892707) rotate(0 -122.71928241081605 20.91045313134748)"><path d="M-0.06 -0.94 C-41.35 6.08, -205.61 34.33, -246.53 41.43 M-1.55 1.19 C-42.59 8.42, -203.58 35.82, -244.39 42.76" stroke="#1971c2" stroke-width="2" fill="none"></path></g><g stroke-opacity="0.4" fill-opacity="0.4" transform="translate(691.0098230116296 47.61057285892707) rotate(0 -122.71928241081605 20.91045313134748)"><path d="M-222.66 30.38 C-232.96 33.5, -240.73 40.04, -244.39 42.76 M-222.66 30.38 C-229.58 33.65, -234.29 36.95, -244.39 42.76" stroke="#1971c2" stroke-width="2" fill="none"></path></g><g stroke-opacity="0.4" fill-opacity="0.4" transform="translate(691.0098230116296 47.61057285892707) rotate(0 -122.71928241081605 20.91045313134748)"><path d="M-219.79 47.24 C-231.15 43.62, -240.06 43.44, -244.39 42.76 M-219.79 47.24 C-227.65 45.73, -233.17 44.25, -244.39 42.76" stroke="#1971c2" stroke-width="2" fill="none"></path></g></g><mask></mask><g stroke-linecap="round"><g stroke-opacity="0.4" fill-opacity="0.4" transform="translate(753.6210058155139 48.60032477626737) rotate(0 33.40412721023131 18.805286429463536)"><path d="M0.21 0.3 C11.14 6.43, 54.39 31.35, 65.69 37.65 M-1.14 -0.59 C10.14 5.68, 56.31 33.1, 67.81 39.22" stroke="#1971c2" stroke-width="2" fill="none"></path></g><g stroke-opacity="0.4" fill-opacity="0.4" transform="translate(753.6210058155139 48.60032477626737) rotate(0 33.40412721023131 18.805286429463536)"><path d="M43.16 35.07 C51.29 34.44, 58.48 39.56, 67.81 39.22 M43.16 35.07 C52.35 35.81, 59.17 38.16, 67.81 39.22" stroke="#1971c2" stroke-width="2" fill="none"></path></g><g stroke-opacity="0.4" fill-opacity="0.4" transform="translate(753.6210058155139 48.60032477626737) rotate(0 33.40412721023131 18.805286429463536)"><path d="M51.59 20.19 C57.22 24.17, 61.81 33.88, 67.81 39.22 M51.59 20.19 C57.82 26.03, 61.74 33.5, 67.81 39.22" stroke="#1971c2" stroke-width="2" fill="none"></path></g></g><mask></mask><g stroke-opacity="0.4" fill-opacity="0.4" transform="translate(199.36340839404807 131.94924346830362) rotate(0 84.814453125 7.245117098373328)"><text x="0" y="11.660110330194593" font-family="Cascadia, Segoe UI Emoji" font-size="12.075195163955566px" fill="#f08c00" text-anchor="start" style="white-space: pre;" direction="ltr" dominant-baseline="alphabetic">|split data column wise|</text></g><g stroke-opacity="0.4" fill-opacity="0.4" transform="translate(913.8304999003681 101.38753642633242) rotate(0 74.29075149699224 7.245117098373328)"><text x="0" y="11.660110330194593" font-family="Cascadia, Segoe UI Emoji" font-size="12.075195163955566px" fill="#f08c00" text-anchor="start" style="white-space: pre;" direction="ltr" dominant-baseline="alphabetic">|split data row wise|</text></g><g stroke-opacity="0.4" fill-opacity="0.4" transform="translate(259.0395649648208 151.64349614803803) rotate(0 95.53620147705078 10)"><text x="0" y="14.016" font-family="Virgil, Segoe UI Emoji" font-size="16px" fill="#e03131" text-anchor="start" style="white-space: pre;" direction="ltr" dominant-baseline="alphabetic">(joins are less efficient)</text></g><g stroke-opacity="0.4" fill-opacity="0.4" transform="translate(918.909576011325 127.28560220481211) rotate(0 275.800537109375 10)"><text x="0" y="14.016" font-family="Virgil, Segoe UI Emoji" font-size="16px" fill="#e03131" text-anchor="start" style="white-space: pre;" direction="ltr" dominant-baseline="alphabetic">(Atomicity is compromised; Not great for range-query heavy use case)</text></g><g stroke-opacity="0.4" fill-opacity="0.4" transform="translate(285.10378648616916 172.06251078987623) rotate(0 104.6882095336914 10)"><text x="0" y="14.016" font-family="Virgil, Segoe UI Emoji" font-size="16px" fill="#2f9e44" text-anchor="start" style="white-space: pre;" direction="ltr" dominant-baseline="alphabetic">(could be great for OLAP)</text></g><g stroke-opacity="0.4" fill-opacity="0.4" transform="translate(855.5654533015527 154.5037799316674) rotate(0 79.1441650390625 10)"><text x="0" y="14.016" font-family="Virgil, Segoe UI Emoji" font-size="16px" fill="#2f9e44" text-anchor="start" style="white-space: pre;" direction="ltr" dominant-baseline="alphabetic">(suitable for OLTP)</text></g><g stroke-opacity="0.4" fill-opacity="0.4" transform="translate(850.1218177561818 17.960294310316613) rotate(0 151.959228515625 7.245117098373328)"><text x="0" y="11.660110330194593" font-family="Cascadia, Segoe UI Emoji" font-size="12.075195163955566px" fill="#f08c00" text-anchor="start" style="white-space: pre;" direction="ltr" dominant-baseline="alphabetic">|The same shard could have multiple tables|</text></g><g stroke-opacity="0.4" fill-opacity="0.4" stroke-linecap="round" transform="translate(892.3769304278267 200.89712591421608) rotate(0 46.665545204707314 25)"><path d="M12.5 0 C35.78 1.42, 56.5 0.85, 80.83 0 C86.76 1.35, 96.55 1.87, 93.33 12.5 C96.62 19.74, 91.41 31.54, 93.33 37.5 C96.59 46.23, 89.81 50.55, 80.83 50 C62.33 50.28, 43.91 48.43, 12.5 50 C2.63 51.6, 0 47.52, 0 37.5 C2.69 29.53, -3.25 23.31, 0 12.5 C1.71 4.65, 6.46 1.38, 12.5 0" stroke="none" stroke-width="0" fill="#ffffff"></path><path d="M12.5 0 C30.36 1.48, 49.75 0.27, 80.83 0 M12.5 0 C29.64 -0.9, 48.62 -1.12, 80.83 0 M80.83 0 C87.42 1.28, 91.84 4.88, 93.33 12.5 M80.83 0 C90.3 0.43, 94.65 1.98, 93.33 12.5 M93.33 12.5 C95.25 16.48, 94.26 24.22, 93.33 37.5 M93.33 12.5 C93.71 16.95, 92.65 23.04, 93.33 37.5 M93.33 37.5 C94.29 45.74, 87.36 49.57, 80.83 50 M93.33 37.5 C94.82 43.59, 87.67 48.82, 80.83 50 M80.83 50 C54.11 47.93, 28.25 49.26, 12.5 50 M80.83 50 C64.74 49.84, 48.43 50.58, 12.5 50 M12.5 50 C5.3 51.75, 0.62 46.67, 0 37.5 M12.5 50 C4.74 47.74, 0.67 47.41, 0 37.5 M0 37.5 C-0.21 28.45, -1.01 22.19, 0 12.5 M0 37.5 C-0.59 30.94, -0.78 24.62, 0 12.5 M0 12.5 C-0.88 2.29, 3.66 0.97, 12.5 0 M0 12.5 C1.33 5.81, 3.69 0.78, 12.5 0" stroke="#1971c2" stroke-width="2" fill="none"></path></g><g stroke-opacity="0.4" fill-opacity="0.4" transform="translate(899.1303967751119 205.89712591421608) rotate(0 39.912078857421875 20)"><text x="39.912078857421875" y="14.016" font-family="Virgil, Segoe UI Emoji" font-size="16px" fill="#1971c2" text-anchor="middle" style="white-space: pre;" direction="ltr" dominant-baseline="alphabetic">Key/Range</text><text x="39.912078857421875" y="34.016" font-family="Virgil, Segoe UI Emoji" font-size="16px" fill="#1971c2" text-anchor="middle" style="white-space: pre;" direction="ltr" dominant-baseline="alphabetic">based</text></g><g stroke-opacity="0.4" fill-opacity="0.4" stroke-linecap="round" transform="translate(361.1466767878985 264.87641874534427) rotate(0 63.29880884202885 18.25038649094995)"><path d="M9.13 0 C41.97 4.21, 76.89 1.47, 117.47 0 C126.73 2.49, 123.69 5.62, 126.6 9.13 C125.66 12.61, 124.02 19.4, 126.6 27.38 C129.92 35.93, 120.22 39.49, 117.47 36.5 C92.67 32.78, 66.87 37.59, 9.13 36.5 C1.55 39.4, 1.24 36.05, 0 27.38 C-0.26 20.37, 2.95 13.09, 0 9.13 C3.17 3.81, 1.69 2.26, 9.13 0" stroke="none" stroke-width="0" fill="#ffffff"></path><path d="M9.13 0 C43.96 -1.49, 78.68 -0.89, 117.47 0 M9.13 0 C43.96 -0.19, 79.58 0.53, 117.47 0 M117.47 0 C122.07 0.26, 127.22 3.06, 126.6 9.13 M117.47 0 C125.11 -0.47, 124.88 2.19, 126.6 9.13 M126.6 9.13 C126.26 14.01, 126.06 22.31, 126.6 27.38 M126.6 9.13 C127.34 14.12, 125.88 20.11, 126.6 27.38 M126.6 27.38 C125.59 35.26, 122.31 36.03, 117.47 36.5 M126.6 27.38 C127.4 31.93, 124.5 34.33, 117.47 36.5 M117.47 36.5 C77.76 38.56, 36.96 36.71, 9.13 36.5 M117.47 36.5 C83.9 36.03, 49.14 34.92, 9.13 36.5 M9.13 36.5 C2.83 38.28, -0.06 34.98, 0 27.38 M9.13 36.5 C4.36 34.82, -0.15 34.67, 0 27.38 M0 27.38 C1.81 21.45, 1.5 15.91, 0 9.13 M0 27.38 C-0.35 22.02, 0.14 16.3, 0 9.13 M0 9.13 C-1.78 4.97, 2.05 -1.29, 9.13 0 M0 9.13 C-1.76 1.33, 5.18 -0.54, 9.13 0" stroke="#1971c2" stroke-width="2" fill="none"></path></g><g stroke-opacity="0.4" fill-opacity="0.4" transform="translate(378.4373832129352 273.1268052362942) rotate(0 46.00810241699219 10)"><text x="46.00810241699219" y="14.016" font-family="Virgil, Segoe UI Emoji" font-size="16px" fill="#1971c2" text-anchor="middle" style="white-space: pre;" direction="ltr" dominant-baseline="alphabetic">hash Based</text></g><g stroke-opacity="0.4" fill-opacity="0.4" transform="translate(989.4043016455353 187.03607288311468) rotate(0 68.60014343261719 10)"><text x="0" y="14.016" font-family="Virgil, Segoe UI Emoji" font-size="16px" fill="#2f9e44" text-anchor="start" style="white-space: pre;" direction="ltr" dominant-baseline="alphabetic">(great for OLAP)</text></g><g stroke-opacity="0.4" fill-opacity="0.4" transform="translate(1005.5755301818199 209.6757928339132) rotate(0 167.85635375976562 10)"><text x="0" y="14.016" font-family="Virgil, Segoe UI Emoji" font-size="16px" fill="#2f9e44" text-anchor="start" style="white-space: pre;" direction="ltr" dominant-baseline="alphabetic">(good for range queries with partition key)</text></g><g stroke-opacity="0.4" fill-opacity="0.4" transform="translate(994.0246526559013 235.549758491969) rotate(0 204.96826171875 7.245117098373328)"><text x="0" y="11.660110330194593" font-family="Cascadia, Segoe UI Emoji" font-size="12.075195163955566px" fill="#f08c00" text-anchor="start" style="white-space: pre;" direction="ltr" dominant-baseline="alphabetic">|partition_key=shard_id; data retrieved using primary key|</text></g><g stroke-linecap="round"><g stroke-opacity="0.4" fill-opacity="0.4" transform="translate(834.6225427982381 141.29459788048064) rotate(0 33.32805591437182 29.30126401686772)"><path d="M1.15 -0.19 C3.89 6.06, 6.49 28.24, 17.48 38.01 C28.47 47.79, 59.02 54.96, 67.08 58.45 M0.29 -1.34 C2.73 5.09, 5.2 29.44, 16.24 39.62 C27.28 49.79, 58.31 56.25, 66.53 59.69" stroke="#1971c2" stroke-width="2" fill="none"></path></g><g stroke-opacity="0.4" fill-opacity="0.4" transform="translate(834.6225427982381 141.29459788048064) rotate(0 33.32805591437182 29.30126401686772)"><path d="M41.55 60.74 C50.87 59.19, 61.04 60.39, 66.53 59.69 M41.55 60.74 C48.59 60.4, 55.55 59.55, 66.53 59.69" stroke="#1971c2" stroke-width="2" fill="none"></path></g><g stroke-opacity="0.4" fill-opacity="0.4" transform="translate(834.6225427982381 141.29459788048064) rotate(0 33.32805591437182 29.30126401686772)"><path d="M46.72 44.44 C54.1 49.23, 62.28 56.72, 66.53 59.69 M46.72 44.44 C52.15 48.8, 57.63 52.62, 66.53 59.69" stroke="#1971c2" stroke-width="2" fill="none"></path></g></g><mask></mask><g stroke-linecap="round"><g stroke-opacity="0.4" fill-opacity="0.4" transform="translate(831.3882970909813 140.83256277944383) rotate(0 -171.26195362089584 60.88141839374816)"><path d="M0.36 0.88 C-6.03 9.71, 18.08 34.01, -39.05 54.09 C-96.18 74.17, -291.72 110.24, -342.42 121.37 M-0.9 0.3 C-7.38 9.85, 17.16 35.28, -39.88 55.64 C-96.92 76.01, -292.55 111.51, -343.14 122.48" stroke="#1971c2" stroke-width="2" fill="none"></path></g><g stroke-opacity="0.4" fill-opacity="0.4" transform="translate(831.3882970909813 140.83256277944383) rotate(0 -171.26195362089584 60.88141839374816)"><path d="M-321.78 109.48 C-325.41 113.1, -332.04 116.07, -343.14 122.48 M-321.78 109.48 C-326.58 112.13, -333.91 115.39, -343.14 122.48" stroke="#1971c2" stroke-width="2" fill="none"></path></g><g stroke-opacity="0.4" fill-opacity="0.4" transform="translate(831.3882970909813 140.83256277944383) rotate(0 -171.26195362089584 60.88141839374816)"><path d="M-318.42 126.25 C-323.03 125.78, -330.48 124.65, -343.14 122.48 M-318.42 126.25 C-324.02 124.39, -332.24 123.17, -343.14 122.48" stroke="#1971c2" stroke-width="2" fill="none"></path></g></g><mask></mask><g stroke-opacity="0.4" fill-opacity="0.4" transform="translate(935.8082299252769 261.88575925106124) rotate(0 176.96035766601562 10)"><text x="0" y="14.016" font-family="Virgil, Segoe UI Emoji" font-size="16px" fill="#e03131" text-anchor="start" style="white-space: pre;" direction="ltr" dominant-baseline="alphabetic">(other keys can't be used for range queries)</text></g><g stroke-opacity="0.4" fill-opacity="0.4" transform="translate(941.8146862387539 283.1393738987498) rotate(0 97.03221130371094 10)"><text x="0" y="14.016" font-family="Virgil, Segoe UI Emoji" font-size="16px" fill="#e03131" text-anchor="start" style="white-space: pre;" direction="ltr" dominant-baseline="alphabetic">(possibility for hotspots)</text></g><g stroke-opacity="0.4" fill-opacity="0.4" transform="translate(10 247.0348158522611) rotate(0 208.502197265625 7.245117098373328)"><text x="0" y="11.660110330194593" font-family="Cascadia, Segoe UI Emoji" font-size="12.075195163955566px" fill="#f08c00" text-anchor="start" style="white-space: pre;" direction="ltr" dominant-baseline="alphabetic">|apply a hash function to a specific attribute of each row|</text></g><g stroke-opacity="0.4" fill-opacity="0.4" transform="translate(179.10484697943502 269.72778730622997) rotate(0 88.348388671875 7.245117098373328)"><text x="0" y="11.660110330194593" font-family="Cascadia, Segoe UI Emoji" font-size="12.075195163955566px" fill="#f08c00" text-anchor="start" style="white-space: pre;" direction="ltr" dominant-baseline="alphabetic">|hash(value) % num_nodes|</text></g><g stroke-opacity="0.4" fill-opacity="0.4" transform="translate(849.4076660314131 35.488559743074575) rotate(0 183.7646484375 7.245117098373328)"><text x="0" y="11.660110330194593" font-family="Cascadia, Segoe UI Emoji" font-size="12.075195163955566px" fill="#f08c00" text-anchor="start" style="white-space: pre;" direction="ltr" dominant-baseline="alphabetic">|num_shards = db_size/optimal_capacity_of_one_shard|</text></g><g stroke-opacity="0.4" fill-opacity="0.4" transform="translate(237.32126971006005 290.5193668528816) rotate(0 52.68010711669922 10)"><text x="0" y="14.016" font-family="Virgil, Segoe UI Emoji" font-size="16px" fill="#2f9e44" text-anchor="start" style="white-space: pre;" direction="ltr" dominant-baseline="alphabetic">(no hotspots)</text></g><g stroke-opacity="0.4" fill-opacity="0.4" transform="translate(209.1371285468208 311.77298150057015) rotate(0 70.28814697265625 10)"><text x="0" y="14.016" font-family="Virgil, Segoe UI Emoji" font-size="16px" fill="#e03131" text-anchor="start" style="white-space: pre;" direction="ltr" dominant-baseline="alphabetic">(no range queries)</text></g><g stroke-opacity="0.4" fill-opacity="0.4" stroke-linecap="round" transform="translate(356.10326044834096 371.41321552167176) rotate(0 82.24224798453383 16.171228536284787)"><path d="M8.09 0 C42.58 -2.83, 77.56 -5.6, 156.4 0 C163.35 1.84, 164.38 1.64, 164.48 8.09 C164.97 14.2, 165.97 17.37, 164.48 24.26 C164.41 31.1, 161.55 29.56, 156.4 32.34 C107.15 31, 52.51 33.84, 8.09 32.34 C3.16 31.87, 1.01 29.94, 0 24.26 C-1.03 19.3, 2.46 16.17, 0 8.09 C-1.38 -0.36, 1.92 0.07, 8.09 0" stroke="none" stroke-width="0" fill="#ffffff"></path><path d="M8.09 0 C51.89 -1.58, 94.7 1.82, 156.4 0 M8.09 0 C64.65 0.46, 120.54 -0.63, 156.4 0 M156.4 0 C162.44 1.04, 165.43 3.78, 164.48 8.09 M156.4 0 C161.91 1.24, 164.15 3.48, 164.48 8.09 M164.48 8.09 C164.48 11.56, 162.91 17.39, 164.48 24.26 M164.48 8.09 C163.72 12.34, 164.58 18.66, 164.48 24.26 M164.48 24.26 C164.59 28.93, 160.24 30.88, 156.4 32.34 M164.48 24.26 C165.94 29, 162.15 32.54, 156.4 32.34 M156.4 32.34 C118.91 35.16, 78.62 32.9, 8.09 32.34 M156.4 32.34 C99.39 31.73, 41.12 31.68, 8.09 32.34 M8.09 32.34 C2.08 33.53, 1.9 27.91, 0 24.26 M8.09 32.34 C4.95 30.15, -2.06 29.34, 0 24.26 M0 24.26 C-1.04 18.79, 0.32 11.95, 0 8.09 M0 24.26 C0.75 19.59, -0.44 13.28, 0 8.09 M0 8.09 C-1.51 4.22, 4.05 1.92, 8.09 0 M0 8.09 C-0.12 3.9, 0.74 -1, 8.09 0" stroke="#1971c2" stroke-width="2" fill="none"></path></g><g stroke-opacity="0.4" fill-opacity="0.4" transform="translate(365.80599757011146 378.34374203722234) rotate(0 71.31216430664062 10)"><text x="0" y="14.016" font-family="Virgil, Segoe UI Emoji" font-size="16px" fill="#1971c2" text-anchor="start" style="white-space: pre;" direction="ltr" dominant-baseline="alphabetic">consistent Hashing</text></g><g stroke-linecap="round"><g stroke-opacity="0.4" fill-opacity="0.4" transform="translate(416.5908889123027 306.22856028812987) rotate(0 18.796593366986485 32.42475477037556)"><path d="M0.4 -0.45 C3.41 3.44, 11.75 11.95, 17.83 22.83 C23.9 33.71, 33.74 57.79, 36.87 64.85 M-0.85 -1.73 C2.11 2.32, 10.67 12.53, 17.37 23.85 C24.08 35.17, 36.22 59.07, 39.38 66.16" stroke="#1971c2" stroke-width="2" fill="none"></path></g></g><mask></mask><g stroke-opacity="0.4" fill-opacity="0.4" transform="translate(165.24379394833386 337.18491205758914) rotate(0 123.74424743652344 10)"><text x="0" y="14.016" font-family="Virgil, Segoe UI Emoji" font-size="16px" fill="#e03131" text-anchor="start" style="white-space: pre;" direction="ltr" dominant-baseline="alphabetic">(difficult to add/remove nodes)</text></g><g stroke-opacity="0.4" fill-opacity="0.4" transform="translate(102.44598997918843 410.2241640087552) rotate(0 208.680419921875 10)"><text x="0" y="14.016" font-family="Virgil, Segoe UI Emoji" font-size="16px" fill="#2f9e44" text-anchor="start" style="white-space: pre;" direction="ltr" dominant-baseline="alphabetic">(reduced data movement when adding/removing nodes)</text></g><g stroke-opacity="0.4" fill-opacity="0.4" transform="translate(107.52837609059225 431.93981375748047) rotate(0 172.288330078125 10)"><text x="0" y="14.016" font-family="Virgil, Segoe UI Emoji" font-size="16px" fill="#e03131" text-anchor="start" style="white-space: pre;" direction="ltr" dominant-baseline="alphabetic">(possibility for hotspots if node is removed)</text></g><g stroke-opacity="0.4" fill-opacity="0.4" stroke-linecap="round" transform="translate(905.6156740201982 338.11484950333056) rotate(0 50.023704028541715 25)"><path d="M12.5 0 C36.43 2.07, 60.82 1.37, 87.55 0 C99.01 -3.42, 102.2 7.41, 100.05 12.5 C101.97 20.11, 102.93 21.19, 100.05 37.5 C101.97 42.51, 94.17 52.55, 87.55 50 C62.11 49.05, 44.98 47.21, 12.5 50 C6.16 47.31, -3.22 48.42, 0 37.5 C-3.11 27.88, 1.12 24.29, 0 12.5 C2.99 0.79, 2.56 -3.46, 12.5 0" stroke="none" stroke-width="0" fill="#ffffff"></path><path d="M12.5 0 C40.5 0.27, 66.43 -1.61, 87.55 0 M12.5 0 C37.6 1.17, 59.83 1.21, 87.55 0 M87.55 0 C94.48 0.36, 98.97 4.32, 100.05 12.5 M87.55 0 C96.93 -1.12, 98.93 2.15, 100.05 12.5 M100.05 12.5 C98.48 18.92, 101.91 27.52, 100.05 37.5 M100.05 12.5 C99.55 18, 99.47 23.78, 100.05 37.5 M100.05 37.5 C99.16 47.2, 96.85 49.54, 87.55 50 M100.05 37.5 C101.24 44.71, 97.04 48.4, 87.55 50 M87.55 50 C61.35 49.71, 33.24 50.07, 12.5 50 M87.55 50 C61.31 51.46, 33.88 50.06, 12.5 50 M12.5 50 C6.06 51.14, -0.96 44.98, 0 37.5 M12.5 50 C5.84 51.28, -1.51 47.76, 0 37.5 M0 37.5 C0.03 32.71, -1.43 25.5, 0 12.5 M0 37.5 C0.01 29.29, 0.92 19.88, 0 12.5 M0 12.5 C0.17 4.88, 5.62 1.9, 12.5 0 M0 12.5 C-1.03 5.96, 5.55 -1.74, 12.5 0" stroke="#1971c2" stroke-width="2" fill="none"></path></g><g stroke-opacity="0.4" fill-opacity="0.4" transform="translate(913.5832867401459 343.11484950333056) rotate(0 42.05609130859375 20)"><text x="42.05609130859375" y="14.016" font-family="Virgil, Segoe UI Emoji" font-size="16px" fill="#1971c2" text-anchor="middle" style="white-space: pre;" direction="ltr" dominant-baseline="alphabetic">Re-balance</text><text x="42.05609130859375" y="34.016" font-family="Virgil, Segoe UI Emoji" font-size="16px" fill="#1971c2" text-anchor="middle" style="white-space: pre;" direction="ltr" dominant-baseline="alphabetic">Partitions</text></g><g stroke-linecap="round"><g stroke-opacity="0.4" fill-opacity="0.4" transform="translate(748.7319952380785 50.04060062301187) rotate(0 80.19364225587265 145.20499301670117)"><path d="M1.1 -1.14 C10.04 26.95, 26.27 119.13, 52.77 167.68 C79.27 216.24, 142.06 269.69, 160.1 290.19 M0.22 0.88 C9.1 29.24, 25.44 120.75, 51.93 169.17 C78.42 217.59, 140.91 270.93, 159.18 291.39" stroke="#1971c2" stroke-width="2" fill="none"></path></g></g><mask></mask><g stroke-opacity="0.4" fill-opacity="0.4" stroke-linecap="round" transform="translate(1069.8958537870826 339.2827180798723) rotate(0 85.05976132479668 15)"><path d="M7.5 0 C59.34 -1.51, 108.62 -4.84, 162.62 0 C165.01 -2.39, 168.66 4.38, 170.12 7.5 C169.18 8.5, 170.37 13.24, 170.12 22.5 C169.65 27.75, 164.65 30.01, 162.62 30 C112.03 32.98, 59.44 31.81, 7.5 30 C-0.87 31.04, 0.02 26.33, 0 22.5 C0.11 16.42, -0.39 13.16, 0 7.5 C-1.93 1.29, -0.59 1.73, 7.5 0" stroke="none" stroke-width="0" fill="#ffffff"></path><path d="M7.5 0 C47.24 -0.08, 84.92 0.67, 162.62 0 M7.5 0 C41.09 0.49, 73.54 1.27, 162.62 0 M162.62 0 C168.26 -0.61, 170.08 1.65, 170.12 7.5 M162.62 0 C167.63 1.71, 167.85 1.51, 170.12 7.5 M170.12 7.5 C171.12 11.72, 168.63 16.86, 170.12 22.5 M170.12 7.5 C170.01 13.41, 170.02 19.1, 170.12 22.5 M170.12 22.5 C168.37 27.2, 166.09 28.32, 162.62 30 M170.12 22.5 C168.86 27, 165.88 29.09, 162.62 30 M162.62 30 C127.15 29.19, 93.58 28.86, 7.5 30 M162.62 30 C131 29.32, 98.39 28.77, 7.5 30 M7.5 30 C2.97 30.03, 1.01 29.08, 0 22.5 M7.5 30 C1.61 28.52, 0.5 28.16, 0 22.5 M0 22.5 C0.47 16.69, -0.94 11.64, 0 7.5 M0 22.5 C0.41 17.75, -0.16 11.46, 0 7.5 M0 7.5 C-0.9 4.14, 3.43 1.56, 7.5 0 M0 7.5 C1.68 0.67, 1.4 -1.17, 7.5 0" stroke="#1971c2" stroke-width="2" fill="none"></path></g><g stroke-opacity="0.4" fill-opacity="0.4" transform="translate(1075.2994490352194 344.2827180798723) rotate(0 79.65616607666016 10)"><text x="79.65616607666016" y="14.016" font-family="Virgil, Segoe UI Emoji" font-size="16px" fill="#1971c2" text-anchor="middle" style="white-space: pre;" direction="ltr" dominant-baseline="alphabetic">avoid hash(value)%n</text></g><g stroke-opacity="0.4" fill-opacity="0.4" stroke-linecap="round" transform="translate(1038.5580469832103 402.5422659758883) rotate(0 81.16686606965732 15)"><path d="M7.5 0 C45.34 -4.45, 81.34 -1.98, 154.83 0 C158.17 -2.73, 161.95 5.21, 162.33 7.5 C163.06 12.28, 162.48 17.76, 162.33 22.5 C160.73 26.47, 159.62 32.6, 154.83 30 C119.35 30.72, 76.67 28, 7.5 30 C0.24 28.98, -0.59 30.27, 0 22.5 C0.2 17.37, -2.04 10.88, 0 7.5 C-2.4 4.16, 1.49 1.57, 7.5 0" stroke="none" stroke-width="0" fill="#ffffff"></path><path d="M7.5 0 C60.02 -0.13, 109.97 0.75, 154.83 0 M7.5 0 C41.54 0.52, 75.47 0.99, 154.83 0 M154.83 0 C159.57 0.23, 162.92 3.86, 162.33 7.5 M154.83 0 C159.76 -0.87, 164.06 2.41, 162.33 7.5 M162.33 7.5 C161.36 11.5, 161.01 14.23, 162.33 22.5 M162.33 7.5 C162.63 14.07, 162.12 19.66, 162.33 22.5 M162.33 22.5 C163.64 27.98, 160.8 29.58, 154.83 30 M162.33 22.5 C163.38 27.52, 159.94 28.16, 154.83 30 M154.83 30 C105.22 30.83, 55.72 31.67, 7.5 30 M154.83 30 C110.71 30.28, 66.25 30.21, 7.5 30 M7.5 30 C3.7 31.84, -0.77 26.01, 0 22.5 M7.5 30 C2.87 30.83, -1.18 27.87, 0 22.5 M0 22.5 C-0.98 16.75, 0.75 13.53, 0 7.5 M0 22.5 C0.47 18.87, -0.41 16.11, 0 7.5 M0 7.5 C0.6 2.14, 1.13 0.96, 7.5 0 M0 7.5 C1.09 3.84, 2.35 -2.24, 7.5 0" stroke="#1971c2" stroke-width="2" fill="none"></path></g><g stroke-opacity="0.4" fill-opacity="0.4" transform="translate(1058.1807693761098 407.5422659758883) rotate(0 61.54414367675781 10)"><text x="61.54414367675781" y="14.016" font-family="Virgil, Segoe UI Emoji" font-size="16px" fill="#1971c2" text-anchor="middle" style="white-space: pre;" direction="ltr" dominant-baseline="alphabetic">Fixed partitions</text></g><g stroke-opacity="0.4" fill-opacity="0.4" stroke-linecap="round" transform="translate(1018.7042811819988 469.5000643642866) rotate(0 79.41506320484473 15)"><path d="M7.5 0 C54.37 1.24, 106.78 1.07, 151.33 0 C155.29 -2.27, 160.03 1.27, 158.83 7.5 C156.7 10.06, 155.99 18.96, 158.83 22.5 C158.69 26.31, 155.87 28.83, 151.33 30 C98.7 31.64, 39.12 26.85, 7.5 30 C3.33 29.59, -3.29 28.73, 0 22.5 C0.68 19.17, 2.59 12.58, 0 7.5 C-3.43 2.75, 2.16 3.38, 7.5 0" stroke="none" stroke-width="0" fill="#ffffff"></path><path d="M7.5 0 C61.5 -1.61, 114.95 -1.03, 151.33 0 M7.5 0 C48.69 -0.43, 89.88 -1.21, 151.33 0 M151.33 0 C156.34 1.33, 158.72 1.5, 158.83 7.5 M151.33 0 C154.18 -1.32, 159.95 3.85, 158.83 7.5 M158.83 7.5 C158.08 12.27, 159.15 16.07, 158.83 22.5 M158.83 7.5 C158.41 11.57, 158.76 15.99, 158.83 22.5 M158.83 22.5 C160.81 28.58, 155.64 29.56, 151.33 30 M158.83 22.5 C157.29 27.82, 154.7 32.24, 151.33 30 M151.33 30 C109.38 31.49, 65.05 31.01, 7.5 30 M151.33 30 C111.55 31.55, 71.69 31.27, 7.5 30 M7.5 30 C3.48 30.19, 1.39 28.87, 0 22.5 M7.5 30 C0.59 28.75, -0.72 27.79, 0 22.5 M0 22.5 C0.05 19.44, -1.5 16.1, 0 7.5 M0 22.5 C0.43 19.39, -0.09 17, 0 7.5 M0 7.5 C1.35 0.53, 4.19 -0.41, 7.5 0 M0 7.5 C1.7 3.78, 2.47 -1.06, 7.5 0" stroke="#1971c2" stroke-width="2" fill="none"></path></g><g stroke-opacity="0.4" fill-opacity="0.4" transform="translate(1026.447179469851 474.5000643642866) rotate(0 71.67216491699219 10)"><text x="71.67216491699219" y="14.016" font-family="Virgil, Segoe UI Emoji" font-size="16px" fill="#1971c2" text-anchor="middle" style="white-space: pre;" direction="ltr" dominant-baseline="alphabetic">Dynamic partitions</text></g><g stroke-opacity="0.4" fill-opacity="0.4" stroke-linecap="round" transform="translate(830.0935060704937 468.5268405505019) rotate(0 79.41506320484473 35)"><path d="M17.5 0 C45.08 -1.55, 68.05 1.94, 141.33 0 C151.31 0.44, 160.95 5.73, 158.83 17.5 C156.86 30.26, 159.08 40.94, 158.83 52.5 C158.97 65.99, 152.69 71.83, 141.33 70 C95.13 70.38, 52.92 68.94, 17.5 70 C7.52 66.97, 1.18 65.71, 0 52.5 C0.23 39.25, -1.45 26.31, 0 17.5 C0.79 3.38, 7.9 2.22, 17.5 0" stroke="none" stroke-width="0" fill="#ffffff"></path><path d="M17.5 0 C44.44 -1.43, 68.95 -1.47, 141.33 0 M17.5 0 C67.69 1.26, 116.38 0.06, 141.33 0 M141.33 0 C154.62 1.99, 158.73 6.39, 158.83 17.5 M141.33 0 C151.08 -1.12, 158.9 5.76, 158.83 17.5 M158.83 17.5 C159.74 26.63, 159.61 39.02, 158.83 52.5 M158.83 17.5 C160 23.7, 159.16 32.09, 158.83 52.5 M158.83 52.5 C158.96 63.17, 151.96 71.95, 141.33 70 M158.83 52.5 C160.64 63.32, 153.76 68.47, 141.33 70 M141.33 70 C112.16 71.42, 81.41 70, 17.5 70 M141.33 70 C109.08 69.57, 77.93 70.51, 17.5 70 M17.5 70 C7.81 71.13, -0.67 64.3, 0 52.5 M17.5 70 C6.61 70.36, 1.12 65.13, 0 52.5 M0 52.5 C0.77 38.77, 0.47 25.56, 0 17.5 M0 52.5 C-0.04 41.2, -0.25 29.15, 0 17.5 M0 17.5 C-0.71 5.15, 5.4 -1.38, 17.5 0 M0 17.5 C-2.04 7.7, 4.86 -0.83, 17.5 0" stroke="#1971c2" stroke-width="2" fill="none"></path></g><g stroke-opacity="0.4" fill-opacity="0.4" transform="translate(847.0444350590296 473.5268405505019) rotate(0 62.464134216308594 30)"><text x="62.464134216308594" y="14.016" font-family="Virgil, Segoe UI Emoji" font-size="16px" fill="#1971c2" text-anchor="middle" style="white-space: pre;" direction="ltr" dominant-baseline="alphabetic">partition </text><text x="62.464134216308594" y="34.016" font-family="Virgil, Segoe UI Emoji" font-size="16px" fill="#1971c2" text-anchor="middle" style="white-space: pre;" direction="ltr" dominant-baseline="alphabetic">proportional to </text><text x="62.464134216308594" y="54.016" font-family="Virgil, Segoe UI Emoji" font-size="16px" fill="#1971c2" text-anchor="middle" style="white-space: pre;" direction="ltr" dominant-baseline="alphabetic">nodes</text></g><g stroke-opacity="0.4" fill-opacity="0.4" transform="translate(1210.040082972102 408.1869640958405) rotate(0 78.41618347167969 10)"><text x="0" y="14.016" font-family="Virgil, Segoe UI Emoji" font-size="16px" fill="#1971c2" text-anchor="start" style="white-space: pre;" direction="ltr" dominant-baseline="alphabetic">(elasticsearch, riak)</text></g><g stroke-opacity="0.4" fill-opacity="0.4" transform="translate(860.0687995350668 545.9954561277766) rotate(0 46.46410369873047 10)"><text x="0" y="14.016" font-family="Virgil, Segoe UI Emoji" font-size="16px" fill="#1971c2" text-anchor="start" style="white-space: pre;" direction="ltr" dominant-baseline="alphabetic">(cassandra)</text></g><g stroke-opacity="0.4" fill-opacity="0.4" transform="translate(1039.5312707969952 509.4022407294659) rotate(0 71.15214538574219 9.999999999999943)"><text x="0" y="14.016" font-family="Virgil, Segoe UI Emoji" font-size="16px" fill="#1971c2" text-anchor="start" style="white-space: pre;" direction="ltr" dominant-baseline="alphabetic">(HBase, MongoDB)</text></g><g stroke-linecap="round"><g stroke-opacity="0.4" fill-opacity="0.4" transform="translate(948.4375218267323 389.8903563966851) rotate(0 -17.90731817364167 38.928952551394445)"><path d="M0.72 -0.85 C-1.33 7, -5.56 34.16, -11.5 47.47 C-17.44 60.78, -31 73.82, -34.92 79.02 M-0.37 1.32 C-2.08 8.79, -3.29 33.08, -9.1 45.74 C-14.91 58.4, -31.01 72.16, -35.22 77.29" stroke="#1971c2" stroke-width="2" fill="none"></path></g></g><mask></mask><g stroke-linecap="round"><g stroke-opacity="0.4" fill-opacity="0.4" transform="translate(949.9946799287877 387.9439087691154) rotate(0 34.452123007984255 42.04326875550595)"><path d="M-0.68 -0.53 C3.09 8.5, 10.75 39.07, 22.47 53.34 C34.18 67.61, 61.87 80.13, 69.6 85.1 M1.17 1.81 C5.32 10.57, 13.37 38.05, 24.71 51.63 C36.05 65.21, 61.81 77.94, 69.2 83.3" stroke="#1971c2" stroke-width="2" fill="none"></path></g></g><mask></mask><g stroke-linecap="round"><g stroke-opacity="0.4" fill-opacity="0.4" transform="translate(950.3839694543017 390.27964592219905) rotate(0 41.848623992749026 19.269831512940243)"><path d="M0.14 -1.05 C6.17 5.21, 23.35 32.81, 37.29 37.66 C51.24 42.52, 76.01 29.68, 83.82 28.09 M-1.24 1.01 C4.51 7.4, 22.25 34.1, 36.31 38.74 C50.37 43.38, 75.06 30.5, 83.12 28.83" stroke="#1971c2" stroke-width="2" fill="none"></path></g></g><mask></mask><g stroke-linecap="round"><g stroke-opacity="0.4" fill-opacity="0.4" transform="translate(950.7732589798156 389.1117773456572) rotate(0 58.58807358984859 -5.839342882709104)"><path d="M-0.05 -0.4 C9.8 1.88, 40.4 17.98, 59.88 14.01 C79.37 10.04, 107.45 -17.63, 116.87 -24.23 M-1.54 -1.66 C8.63 0.26, 42.57 16.39, 62.15 12.3 C81.73 8.2, 106.93 -20.03, 115.94 -26.21" stroke="#1971c2" stroke-width="2" fill="none"></path></g></g><mask></mask><g stroke-opacity="0.4" fill-opacity="0.4" stroke-linecap="round" transform="translate(621.2903651566953 351.6200117954221) rotate(0 79.41506320484473 25)"><path d="M12.5 0 C55.66 1.67, 100.79 -0.95, 146.33 0 C155.25 3.44, 158.33 2.49, 158.83 12.5 C158.25 19.84, 155.42 28.44, 158.83 37.5 C161.67 43.21, 152.72 51.96, 146.33 50 C94.09 47.61, 40.68 50.05, 12.5 50 C1.92 52.74, 0.47 47.74, 0 37.5 C-1.31 32.25, -1.55 22.22, 0 12.5 C-0.85 4.47, 1.3 -3.48, 12.5 0" stroke="none" stroke-width="0" fill="#ffffff"></path><path d="M12.5 0 C43.78 0.97, 75.57 0.59, 146.33 0 M12.5 0 C51.4 0.39, 92.05 1.17, 146.33 0 M146.33 0 C152.77 -0.17, 159.05 4.48, 158.83 12.5 M146.33 0 C153.09 -1.17, 157.91 4.24, 158.83 12.5 M158.83 12.5 C158.27 19.14, 158.53 22.39, 158.83 37.5 M158.83 12.5 C159.13 21.05, 159.03 28.95, 158.83 37.5 M158.83 37.5 C160.68 44.26, 155.52 51.62, 146.33 50 M158.83 37.5 C160.94 47.16, 156.93 51.94, 146.33 50 M146.33 50 C120.03 49.99, 88.7 49.37, 12.5 50 M146.33 50 C99.65 51.21, 52.6 50.23, 12.5 50 M12.5 50 C4.61 51.8, 1.37 45.5, 0 37.5 M12.5 50 C4.5 50.3, -2.23 47.4, 0 37.5 M0 37.5 C-0.06 32.04, 1.1 27.9, 0 12.5 M0 37.5 C1.06 29.65, 0.82 21.35, 0 12.5 M0 12.5 C-1.28 3.75, 3.94 -1.59, 12.5 0 M0 12.5 C-1.54 4.33, 2.1 -1.88, 12.5 0" stroke="#1971c2" stroke-width="2" fill="none"></path></g><g stroke-opacity="0.4" fill-opacity="0.4" transform="translate(630.3212807174971 356.6200117954221) rotate(0 70.38414764404286 20)"><text x="70.38414764404297" y="14.016" font-family="Virgil, Segoe UI Emoji" font-size="16px" fill="#1971c2" text-anchor="middle" style="white-space: pre;" direction="ltr" dominant-baseline="alphabetic">Request routing/ </text><text x="70.38414764404297" y="34.016" font-family="Virgil, Segoe UI Emoji" font-size="16px" fill="#1971c2" text-anchor="middle" style="white-space: pre;" direction="ltr" dominant-baseline="alphabetic">Service discovery</text></g><g stroke-opacity="0.4" fill-opacity="0.4" stroke-linecap="round" transform="translate(389.5579035832898 515.6384423895857) rotate(0 79.41506320484473 15.000000000000057)"><path d="M7.5 0 C47.11 -0.65, 87.03 -1.88, 151.33 0 C156.72 -2.82, 162.12 -0.84, 158.83 7.5 C161.41 12.4, 158.07 15.81, 158.83 22.5 C157.34 30.63, 156.98 30.48, 151.33 30 C111.05 31.95, 75.27 29.54, 7.5 30 C0.99 30.99, -1.42 26.46, 0 22.5 C-1.33 19.47, 2.58 17.63, 0 7.5 C-2.58 0.62, 4.28 -1.88, 7.5 0" stroke="none" stroke-width="0" fill="#ffffff"></path><path d="M7.5 0 C63.75 -0.82, 118.73 1.85, 151.33 0 M7.5 0 C58.6 -1.04, 109.11 -0.28, 151.33 0 M151.33 0 C155.09 -1.68, 157.14 0.61, 158.83 7.5 M151.33 0 C156.63 2.04, 159.37 2.24, 158.83 7.5 M158.83 7.5 C157.75 10.55, 158.12 16.37, 158.83 22.5 M158.83 7.5 C158.41 11.87, 158.76 17.38, 158.83 22.5 M158.83 22.5 C156.84 27.23, 154.83 28.41, 151.33 30 M158.83 22.5 C156.83 28.75, 155.12 28.98, 151.33 30 M151.33 30 C102.68 29.36, 52.92 28.16, 7.5 30 M151.33 30 C98.34 29.74, 44.65 30.02, 7.5 30 M7.5 30 C0.89 28.59, 1.2 27.58, 0 22.5 M7.5 30 C1.9 29.12, 1.62 25.93, 0 22.5 M0 22.5 C-1.47 16.5, 0.91 9.87, 0 7.5 M0 22.5 C0.15 19.46, -0.04 14.93, 0 7.5 M0 7.5 C0.83 3.44, 2.52 -0.57, 7.5 0 M0 7.5 C-0.22 0.47, 4.3 -0.59, 7.5 0" stroke="#1971c2" stroke-width="2" fill="none"></path></g><g stroke-opacity="0.4" fill-opacity="0.4" transform="translate(429.32488786967747 520.6384423895857) rotate(0 39.64807891845703 10.000000000000057)"><text x="39.64807891845703" y="14.016" font-family="Virgil, Segoe UI Emoji" font-size="16px" fill="#1971c2" text-anchor="middle" style="white-space: pre;" direction="ltr" dominant-baseline="alphabetic">Zookeeper</text></g><g stroke-linecap="round"><g stroke-opacity="0.4" fill-opacity="0.4" transform="translate(750.3623844129838 48.10466630444239) rotate(0 -24.076099903730437 151.98038064229848)"><path d="M-0.85 0.89 C-2 28.21, 1.2 112.46, -6.81 162.88 C-14.82 213.3, -42.08 279.86, -48.9 303.41 M0.91 0.31 C-0.35 27.41, 0.5 110.66, -7.38 161.35 C-15.27 212.04, -39.76 280.43, -46.4 304.43" stroke="#1971c2" stroke-width="2" fill="none"></path></g></g><mask></mask><g stroke-linecap="round"><g stroke-opacity="0.4" fill-opacity="0.4" transform="translate(702.210184605523 400.9700055184919) rotate(0 -112.85671829873661 56.804548210363976)"><path d="M0.22 -0.24 C-18.18 11.41, -72.54 50.46, -110.36 69.55 C-148.18 88.65, -207.59 107.14, -226.7 114.33 M-1.12 -1.41 C-19.73 9.9, -74.37 48.64, -111.57 67.61 C-148.77 86.57, -205.52 104.74, -224.33 112.37" stroke="#1971c2" stroke-width="2" fill="none"></path></g></g><mask></mask><g stroke-opacity="0.4" fill-opacity="0.4" stroke-linecap="round" transform="translate(616.7760964247454 515.6384423895861) rotate(0 79.41506320484473 15)"><path d="M7.5 0 C60.05 2, 123.19 5.54, 151.33 0 C156.18 -3.48, 155.38 0.9, 158.83 7.5 C160.21 12.06, 156.72 14.66, 158.83 22.5 C159.24 24.49, 155.68 28.69, 151.33 30 C94.26 28.48, 42.83 30.61, 7.5 30 C0.69 31.99, 2.7 26.56, 0 22.5 C-1.72 15.05, -0.73 15.01, 0 7.5 C1.17 4.66, 0.08 -0.76, 7.5 0" stroke="none" stroke-width="0" fill="#ffffff"></path><path d="M7.5 0 C53.59 0.87, 98.46 1.25, 151.33 0 M7.5 0 C58.88 1.01, 111.45 2.06, 151.33 0 M151.33 0 C155.4 1.4, 159.98 1.2, 158.83 7.5 M151.33 0 C156.33 1.63, 159 2.65, 158.83 7.5 M158.83 7.5 C159.15 12.46, 160.33 19.5, 158.83 22.5 M158.83 7.5 C158.94 11.61, 158.67 14.88, 158.83 22.5 M158.83 22.5 C157.5 28.53, 157.02 29.24, 151.33 30 M158.83 22.5 C157.85 29.53, 154.82 28.61, 151.33 30 M151.33 30 C111.02 30.65, 70.86 31.35, 7.5 30 M151.33 30 C116.83 30.54, 80.32 29.27, 7.5 30 M7.5 30 C2.62 31.18, -0.52 28.21, 0 22.5 M7.5 30 C4.49 30.69, -1.93 26.25, 0 22.5 M0 22.5 C-0.83 20.63, -0.64 15.91, 0 7.5 M0 22.5 C-0.25 19.29, -0.35 15.35, 0 7.5 M0 7.5 C-0.36 1.96, 0.72 0.21, 7.5 0 M0 7.5 C0.59 2.38, 4.17 -1.38, 7.5 0" stroke="#1971c2" stroke-width="2" fill="none"></path></g><g stroke-opacity="0.4" fill-opacity="0.4" transform="translate(647.7750524518558 520.6384423895861) rotate(0 48.41610717773449 10)"><text x="48.416107177734375" y="14.016" font-family="Virgil, Segoe UI Emoji" font-size="16px" fill="#1971c2" text-anchor="middle" style="white-space: pre;" direction="ltr" dominant-baseline="alphabetic">Routing Tier</text></g><g stroke-opacity="0.4" fill-opacity="0.4" transform="translate(620.9533474304326 556.7122767707481) rotate(0 125.6082534790039 20)"><text x="0" y="14.016" font-family="Virgil, Segoe UI Emoji" font-size="16px" fill="#1971c2" text-anchor="start" style="white-space: pre;" direction="ltr" dominant-baseline="alphabetic">(determines which node to </text><text x="0" y="34.016" font-family="Virgil, Segoe UI Emoji" font-size="16px" fill="#1971c2" text-anchor="start" style="white-space: pre;" direction="ltr" dominant-baseline="alphabetic">connect to for a given request)</text></g><g stroke-linecap="round"><g stroke-opacity="0.4" fill-opacity="0.4" transform="translate(697.6959158735731 400.9700055184919) rotate(0 8.276159341907487 56.42835914936825)"><path d="M-0.88 0.19 C1.81 11.05, 15.15 46.05, 15.82 64.76 C16.48 83.46, 5.29 104.28, 3.13 112.42 M0.86 -0.75 C3.97 10.29, 17.82 46.89, 18.14 65.93 C18.47 84.97, 5.28 105.92, 2.82 113.51" stroke="#1971c2" stroke-width="2" fill="none"></path></g></g><mask></mask><g stroke-opacity="0.4" fill-opacity="0.4" transform="translate(363.64002970931324 558.9694111367228) rotate(0 109.6402359008789 10)"><text x="0" y="14.016" font-family="Virgil, Segoe UI Emoji" font-size="16px" fill="#1971c2" text-anchor="start" style="white-space: pre;" direction="ltr" dominant-baseline="alphabetic">(tracks changes to cluster)</text></g></svg>