<svg version="1.1" xmlns="http://www.w3.org/2000/svg" viewBox="0 0 1453.4214609703083 640.7547164755674" width="1453.4214609703083" height="640.7547164755674" filter="invert(93%) hue-rotate(180deg)">
  <!-- svg-source:excalidraw -->
  
  <defs>
    <style class="style-fonts">
      @font-face {
        font-family: "Virgil";
        src: url("https://excalidraw.com/Virgil.woff2");
      }
      @font-face {
        font-family: "Cascadia";
        src: url("https://excalidraw.com/Cascadia.woff2");
      }
      @font-face {
        font-family: "Assistant";
        src: url("https://excalidraw.com/Assistant-Regular.woff2");
      }
    </style>
    
  </defs>
  <rect x="0" y="0" width="1453.4214609703083" height="640.7547164755674" fill="#f5faff"></rect><g stroke-opacity="0.4" fill-opacity="0.4" stroke-linecap="round" transform="translate(703.816094055471 37.72206857457746) rotate(0 65.5710645237873 15)"><path d="M7.5 0 C39.18 1.28, 67.47 -0.68, 123.64 0 M7.5 0 C36.87 -0.1, 66.15 -0.27, 123.64 0 M123.64 0 C126.66 1.01, 130.48 3.16, 131.14 7.5 M123.64 0 C127.56 0.81, 132.41 1.19, 131.14 7.5 M131.14 7.5 C131.64 13.22, 131.5 18.3, 131.14 22.5 M131.14 7.5 C131.72 11.11, 131.75 14.24, 131.14 22.5 M131.14 22.5 C132.34 27.22, 126.84 31.45, 123.64 30 M131.14 22.5 C133.04 26.3, 127.95 28.52, 123.64 30 M123.64 30 C86.43 30.18, 51.16 28.75, 7.5 30 M123.64 30 C95.64 29.15, 70.16 28.62, 7.5 30 M7.5 30 C3.84 31.29, -0.72 29.44, 0 22.5 M7.5 30 C0.71 32.19, -0.8 26.09, 0 22.5 M0 22.5 C0.88 19.55, -1.42 12.98, 0 7.5 M0 22.5 C-0.37 19.75, -0.11 16.52, 0 7.5 M0 7.5 C-0.18 0.73, 4.29 1.77, 7.5 0 M0 7.5 C0.06 2.26, 0.65 1.48, 7.5 0" stroke="#1971c2" stroke-width="2" fill="none"></path></g><g stroke-opacity="0.4" fill-opacity="0.4" transform="translate(727.9950687355083 42.72206857457746) rotate(0 41.39208984375 10)"><text x="41.39208984375" y="14.016" font-family="Virgil, Segoe UI Emoji" font-size="16px" fill="#1971c2" text-anchor="middle" style="white-space: pre;" direction="ltr" dominant-baseline="alphabetic">Replication</text></g><g stroke-opacity="0.4" fill-opacity="0.4" stroke-linecap="round" transform="translate(622.161560874906 110.77627697887561) rotate(0 59.63255301974618 15)"><path d="M7.5 0 C30.54 0.41, 51.88 0.8, 111.77 0 M7.5 0 C34.79 -1.38, 61.15 -0.58, 111.77 0 M111.77 0 C115.97 -0.66, 119.16 0.75, 119.27 7.5 M111.77 0 C115.04 -1.36, 120.77 1.95, 119.27 7.5 M119.27 7.5 C119.63 12.37, 119.15 17.54, 119.27 22.5 M119.27 7.5 C119.38 12.78, 119.29 17.25, 119.27 22.5 M119.27 22.5 C118.12 28.34, 116.33 31.91, 111.77 30 M119.27 22.5 C117.77 29.72, 116.46 28.72, 111.77 30 M111.77 30 C87.53 32.12, 60.1 31.69, 7.5 30 M111.77 30 C75.93 29.66, 39.45 30.51, 7.5 30 M7.5 30 C1.35 31.11, -1.33 28.97, 0 22.5 M7.5 30 C4.68 30.58, 2.16 25.25, 0 22.5 M0 22.5 C0.57 18.03, -0.67 12.81, 0 7.5 M0 22.5 C-0.69 16.33, -0.34 10.36, 0 7.5 M0 7.5 C0.86 2.25, 2.45 0.45, 7.5 0 M0 7.5 C1.69 4.11, 1.73 0.66, 7.5 0" stroke="#1971c2" stroke-width="2" fill="none"></path></g><g stroke-opacity="0.4" fill-opacity="0.4" transform="translate(636.5460212432849 115.77627697887561) rotate(0 45.24809265136719 10)"><text x="45.24809265136719" y="14.016" font-family="Virgil, Segoe UI Emoji" font-size="16px" fill="#1971c2" text-anchor="middle" style="white-space: pre;" direction="ltr" dominant-baseline="alphabetic">Synchronous</text></g><g stroke-opacity="0.4" fill-opacity="0.4" stroke-linecap="round" transform="translate(801.5540958928152 110.12767978030834) rotate(0 59.63255301974618 15)"><path d="M7.5 0 C31.25 0.86, 57.94 1.1, 111.77 0 M7.5 0 C36.19 -0.8, 64.81 0.24, 111.77 0 M111.77 0 C114.87 0.72, 121.23 0.63, 119.27 7.5 M111.77 0 C116.64 0.38, 118.76 1.94, 119.27 7.5 M119.27 7.5 C119.55 10.86, 120.58 14.28, 119.27 22.5 M119.27 7.5 C119.8 10.63, 118.73 14.54, 119.27 22.5 M119.27 22.5 C118.28 26.72, 116.23 28.15, 111.77 30 M119.27 22.5 C119.2 27.58, 115.13 29.37, 111.77 30 M111.77 30 C90.5 29.84, 69.28 29.36, 7.5 30 M111.77 30 C84.74 29.87, 58.27 29.15, 7.5 30 M7.5 30 C3.58 31.48, -1.98 27.88, 0 22.5 M7.5 30 C1.57 31.31, 2.1 26.17, 0 22.5 M0 22.5 C-0.34 18.28, -0.51 13.35, 0 7.5 M0 22.5 C-0.25 17.52, -0.13 12.34, 0 7.5 M0 7.5 C-0.76 3.73, 3.4 -0.81, 7.5 0 M0 7.5 C-1.41 4.8, 2.41 1.89, 7.5 0" stroke="#1971c2" stroke-width="2" fill="none"></path></g><g stroke-opacity="0.4" fill-opacity="0.4" transform="translate(811.2105518056276 115.12767978030834) rotate(0 49.976097106933594 10)"><text x="49.976097106933594" y="14.016" font-family="Virgil, Segoe UI Emoji" font-size="16px" fill="#1971c2" text-anchor="middle" style="white-space: pre;" direction="ltr" dominant-baseline="alphabetic">Asynchronous</text></g><g stroke-opacity="0.4" fill-opacity="0.4" stroke-linecap="round" transform="translate(703.568656076136 182.87444570481196) rotate(0 59.6325530197463 35)"><path d="M17.5 0 C37.06 -1.29, 55 -2.19, 101.77 0 M17.5 0 C47.69 1.41, 79.31 1.38, 101.77 0 M101.77 0 C112.74 0.46, 118.28 7.65, 119.27 17.5 M101.77 0 C113.27 -0.29, 117.46 3.86, 119.27 17.5 M119.27 17.5 C118.57 30.18, 120.11 38.78, 119.27 52.5 M119.27 17.5 C119.23 28.99, 119.12 39.37, 119.27 52.5 M119.27 52.5 C119.53 65.48, 114.9 69.9, 101.77 70 M119.27 52.5 C120.91 66.31, 111.89 67.72, 101.77 70 M101.77 70 C80.59 70.77, 60.29 67.61, 17.5 70 M101.77 70 C80.05 69.78, 60.04 69.58, 17.5 70 M17.5 70 C4.02 68.65, 1.36 63.28, 0 52.5 M17.5 70 C7.68 69.92, 0.1 65.35, 0 52.5 M0 52.5 C1.46 39.34, -1.41 26.25, 0 17.5 M0 52.5 C-0.39 43.65, 0.28 34.54, 0 17.5 M0 17.5 C-0.45 6.77, 6.79 1.05, 17.5 0 M0 17.5 C0.07 5.98, 5.08 -0.58, 17.5 0" stroke="#1971c2" stroke-width="2" fill="none"></path></g><g stroke-opacity="0.4" fill-opacity="0.4" transform="translate(721.8091192521322 187.87444570481196) rotate(0 41.39208984375 30)"><text x="41.39208984375" y="14.016" font-family="Virgil, Segoe UI Emoji" font-size="16px" fill="#1971c2" text-anchor="middle" style="white-space: pre;" direction="ltr" dominant-baseline="alphabetic">Data </text><text x="41.39208984375" y="34.016" font-family="Virgil, Segoe UI Emoji" font-size="16px" fill="#1971c2" text-anchor="middle" style="white-space: pre;" direction="ltr" dominant-baseline="alphabetic">Replication</text><text x="41.39208984375" y="54.016" font-family="Virgil, Segoe UI Emoji" font-size="16px" fill="#1971c2" text-anchor="middle" style="white-space: pre;" direction="ltr" dominant-baseline="alphabetic">Models</text></g><g stroke-opacity="0.4" fill-opacity="0.4" stroke-linecap="round" transform="translate(539.2698377976653 303.62417962031486) rotate(0 59.63255301974618 45)"><path d="M22.5 0 C41.5 0.92, 61.83 -1.53, 96.77 0 M22.5 0 C39.51 0.35, 55.99 -0.03, 96.77 0 M96.77 0 C113.02 0.46, 117.3 9.28, 119.27 22.5 M96.77 0 C110.15 1.49, 118.42 6.47, 119.27 22.5 M119.27 22.5 C121.21 37.88, 120.91 47.76, 119.27 67.5 M119.27 22.5 C119.17 35.3, 118.74 46.86, 119.27 67.5 M119.27 67.5 C117.46 83.51, 112.1 90.88, 96.77 90 M119.27 67.5 C121.36 82.45, 113.23 88.68, 96.77 90 M96.77 90 C75.85 88.38, 53.18 90.65, 22.5 90 M96.77 90 C70.77 89.28, 46.02 90.24, 22.5 90 M22.5 90 C8.19 90.79, 1.75 82.69, 0 67.5 M22.5 90 C5.68 88.57, 2.17 82.81, 0 67.5 M0 67.5 C1.97 56.76, -1.31 46.24, 0 22.5 M0 67.5 C0.98 49.91, 0.47 32.46, 0 22.5 M0 22.5 C0.82 6.16, 6.52 0.51, 22.5 0 M0 22.5 C1.36 7.43, 6.85 0.7, 22.5 0" stroke="#1971c2" stroke-width="2" fill="none"></path></g><g stroke-opacity="0.4" fill-opacity="0.4" transform="translate(545.6302732026654 308.62417962031486) rotate(0 53.272117614746094 40)"><text x="53.272117614746094" y="14.016" font-family="Virgil, Segoe UI Emoji" font-size="16px" fill="#1971c2" text-anchor="middle" style="white-space: pre;" direction="ltr" dominant-baseline="alphabetic">primary/secon</text><text x="53.272117614746094" y="34.016" font-family="Virgil, Segoe UI Emoji" font-size="16px" fill="#1971c2" text-anchor="middle" style="white-space: pre;" direction="ltr" dominant-baseline="alphabetic">dary or single</text><text x="53.272117614746094" y="54.016" font-family="Virgil, Segoe UI Emoji" font-size="16px" fill="#1971c2" text-anchor="middle" style="white-space: pre;" direction="ltr" dominant-baseline="alphabetic">leader </text><text x="53.272117614746094" y="74.016" font-family="Virgil, Segoe UI Emoji" font-size="16px" fill="#1971c2" text-anchor="middle" style="white-space: pre;" direction="ltr" dominant-baseline="alphabetic">approach</text></g><g stroke-opacity="0.4" fill-opacity="0.4" transform="translate(272.28425809514965 313.1805440749438) rotate(0 125.8962631225586 10)"><text x="0" y="14.016" font-family="Virgil, Segoe UI Emoji" font-size="16px" fill="#1971c2" text-anchor="start" style="white-space: pre;" direction="ltr" dominant-baseline="alphabetic">(Only for read heavy workloads)</text></g><g stroke-opacity="0.4" fill-opacity="0.4" stroke-linecap="round" transform="translate(380.90953102323556 418.43540203177673) rotate(0 47.50809203232893 25)"><path d="M12.5 0 C26.44 -0.76, 43.14 0.3, 82.52 0 M12.5 0 C28.19 1.04, 42.4 -0.15, 82.52 0 M82.52 0 C90.92 0.1, 94.91 4.17, 95.02 12.5 M82.52 0 C92.45 -1.42, 94.51 3.29, 95.02 12.5 M95.02 12.5 C95.49 21.53, 95.93 28.93, 95.02 37.5 M95.02 12.5 C94.17 21.36, 95.99 30.5, 95.02 37.5 M95.02 37.5 C95.58 45.59, 91.42 49.39, 82.52 50 M95.02 37.5 C96.99 43.71, 92.01 49.59, 82.52 50 M82.52 50 C56.23 50.11, 30.5 49.94, 12.5 50 M82.52 50 C66.47 51.17, 49.1 50.75, 12.5 50 M12.5 50 C2.22 49.35, 0.78 46.97, 0 37.5 M12.5 50 C1.9 49.99, -0.97 44.61, 0 37.5 M0 37.5 C-0.63 28.72, -0.19 21.72, 0 12.5 M0 37.5 C0.45 28.83, 1.07 20.47, 0 12.5 M0 12.5 C-0.03 4.74, 2.5 -0.93, 12.5 0 M0 12.5 C2.27 6.24, 5.2 -0.1, 12.5 0" stroke="#1971c2" stroke-width="2" fill="none"></path></g><g stroke-opacity="0.4" fill-opacity="0.4" transform="translate(387.10552741347465 423.43540203177673) rotate(0 41.312095642089844 20)"><text x="41.312095642089844" y="14.016" font-family="Virgil, Segoe UI Emoji" font-size="16px" fill="#1971c2" text-anchor="middle" style="white-space: pre;" direction="ltr" dominant-baseline="alphabetic">Statement</text><text x="41.312095642089844" y="34.016" font-family="Virgil, Segoe UI Emoji" font-size="16px" fill="#1971c2" text-anchor="middle" style="white-space: pre;" direction="ltr" dominant-baseline="alphabetic">Based</text></g><g stroke-opacity="0.4" fill-opacity="0.4" transform="translate(10 434.92002990778695) rotate(0 182.0003662109375 10)"><text x="0" y="14.016" font-family="Virgil, Segoe UI Emoji" font-size="16px" fill="#e03131" text-anchor="start" style="white-space: pre;" direction="ltr" dominant-baseline="alphabetic">(bad for non deterministic functions like now())</text></g><g stroke-opacity="0.4" fill-opacity="0.4" stroke-linecap="round" transform="translate(497.7002572693773 488.21291220425985) rotate(0 59.63255301974618 25)"><path d="M12.5 0 C33.9 0.98, 53.95 0.77, 106.77 0 M12.5 0 C33.34 0.91, 54.84 0.15, 106.77 0 M106.77 0 C114.94 -0.57, 117.78 4.18, 119.27 12.5 M106.77 0 C115.67 1.7, 121.03 6.44, 119.27 12.5 M119.27 12.5 C120.48 20.46, 120.36 29.5, 119.27 37.5 M119.27 12.5 C118.93 22.19, 118.93 32.92, 119.27 37.5 M119.27 37.5 C119.26 46.93, 113.56 51.86, 106.77 50 M119.27 37.5 C118.58 47.19, 113.53 49.86, 106.77 50 M106.77 50 C71.32 51.46, 34.5 50.89, 12.5 50 M106.77 50 C87.68 49.74, 68.11 49.4, 12.5 50 M12.5 50 C2.8 51.4, -0.63 45.61, 0 37.5 M12.5 50 C6.28 49.08, -1.59 47.51, 0 37.5 M0 37.5 C1.36 29.3, -1.05 21.77, 0 12.5 M0 37.5 C-0.06 31.96, -0.27 26.5, 0 12.5 M0 12.5 C-1.95 6.06, 4.64 1.34, 12.5 0 M0 12.5 C1.8 4.81, 5.7 -1.57, 12.5 0" stroke="#1971c2" stroke-width="2" fill="none"></path></g><g stroke-opacity="0.4" fill-opacity="0.4" transform="translate(507.2366951768188 493.21291220425985) rotate(0 50.09611511230469 20)"><text x="50.09611511230469" y="14.016" font-family="Virgil, Segoe UI Emoji" font-size="16px" fill="#1971c2" text-anchor="middle" style="white-space: pre;" direction="ltr" dominant-baseline="alphabetic">Write-Ahead-</text><text x="50.09611511230469" y="34.016" font-family="Virgil, Segoe UI Emoji" font-size="16px" fill="#1971c2" text-anchor="middle" style="white-space: pre;" direction="ltr" dominant-baseline="alphabetic">Log shipping</text></g><g stroke-opacity="0.4" fill-opacity="0.4" transform="translate(253.97384762435604 485.3973776921364) rotate(0 117.09626770019531 10)"><text x="0" y="14.016" font-family="Virgil, Segoe UI Emoji" font-size="16px" fill="#1971c2" text-anchor="start" style="white-space: pre;" direction="ltr" dominant-baseline="alphabetic">(maintains transactional logs)</text></g><g stroke-opacity="0.4" fill-opacity="0.4" stroke-linecap="round" transform="translate(557.5802482684583 580.7547164755674) rotate(0 59.63255301974618 25)"><path d="M12.5 0 C37.39 0.7, 66.11 0.48, 106.77 0 M12.5 0 C32.73 0.39, 53.87 1.14, 106.77 0 M106.77 0 C113.46 -1.2, 117.41 4.42, 119.27 12.5 M106.77 0 C114.23 -1.73, 120.53 4.17, 119.27 12.5 M119.27 12.5 C118.06 17.9, 120.88 25.11, 119.27 37.5 M119.27 12.5 C118.51 21.55, 120.07 30.69, 119.27 37.5 M119.27 37.5 C118.62 47.7, 116.25 50.54, 106.77 50 M119.27 37.5 C118.06 47.07, 113.58 51.42, 106.77 50 M106.77 50 C81.66 50.55, 57.69 51.11, 12.5 50 M106.77 50 C72.97 49.35, 39.43 51.09, 12.5 50 M12.5 50 C3.78 49.76, -0.39 47.59, 0 37.5 M12.5 50 C3.08 48.31, -1.58 45.65, 0 37.5 M0 37.5 C2.1 31.59, 1.71 23.12, 0 12.5 M0 37.5 C0.26 27.26, 0.81 17.67, 0 12.5 M0 12.5 C1.51 5.16, 3.4 -1.39, 12.5 0 M0 12.5 C-2.28 5.71, 3.75 1.88, 12.5 0" stroke="#1971c2" stroke-width="2" fill="none"></path></g><g stroke-opacity="0.4" fill-opacity="0.4" transform="translate(568.0447028384974 585.7547164755674) rotate(0 49.16809844970703 20)"><text x="49.16809844970703" y="14.016" font-family="Virgil, Segoe UI Emoji" font-size="16px" fill="#1971c2" text-anchor="middle" style="white-space: pre;" direction="ltr" dominant-baseline="alphabetic">Logical/Row </text><text x="49.16809844970703" y="34.016" font-family="Virgil, Segoe UI Emoji" font-size="16px" fill="#1971c2" text-anchor="middle" style="white-space: pre;" direction="ltr" dominant-baseline="alphabetic">based</text></g><g stroke-opacity="0.4" fill-opacity="0.4" transform="translate(298.5126839046652 595.2598405168973) rotate(0 126.24027252197266 10)"><text x="0" y="14.016" font-family="Virgil, Segoe UI Emoji" font-size="16px" fill="#2f9e44" text-anchor="start" style="white-space: pre;" direction="ltr" dominant-baseline="alphabetic">(flexible with different schemas)</text></g><g stroke-linecap="round"><g stroke-opacity="0.4" fill-opacity="0.4" transform="translate(575.6432207599169 401.2684647182206) rotate(0 -44.538836280308374 13.114212904757466)"><path d="M-1.19 -0.35 C-16.27 4.32, -74.7 22.43, -89.49 26.94 M0.38 -1.59 C-14.98 2.85, -76 20.83, -90.65 25.19" stroke="#1971c2" stroke-width="2" fill="none"></path></g><g stroke-opacity="0.4" fill-opacity="0.4" transform="translate(575.6432207599169 401.2684647182206) rotate(0 -44.538836280308374 13.114212904757466)"><path d="M-70.55 10.33 C-78.97 15.13, -84.89 20.05, -90.65 25.19 M-70.55 10.33 C-76.98 15.05, -83.95 20.34, -90.65 25.19" stroke="#1971c2" stroke-width="2" fill="none"></path></g><g stroke-opacity="0.4" fill-opacity="0.4" transform="translate(575.6432207599169 401.2684647182206) rotate(0 -44.538836280308374 13.114212904757466)"><path d="M-65.7 26.73 C-75.82 25.2, -83.59 23.85, -90.65 25.19 M-65.7 26.73 C-73.65 25.97, -82.25 25.74, -90.65 25.19" stroke="#1971c2" stroke-width="2" fill="none"></path></g></g><mask></mask><g stroke-linecap="round"><g stroke-opacity="0.4" fill-opacity="0.4" transform="translate(583.0663601399683 401.2684647182206) rotate(0 -12.124460987417251 38.847762755602304)"><path d="M0.57 -1.2 C-3.26 11.64, -19.31 63.56, -23.55 76.75 M-0.59 0.79 C-4.46 13.77, -19.91 64.7, -24.13 77.79" stroke="#1971c2" stroke-width="2" fill="none"></path></g><g stroke-opacity="0.4" fill-opacity="0.4" transform="translate(583.0663601399683 401.2684647182206) rotate(0 -12.124460987417251 38.847762755602304)"><path d="M-25.31 52.81 C-27.07 60.2, -26.36 64.25, -24.13 77.79 M-25.31 52.81 C-26.08 59.97, -23.91 68.59, -24.13 77.79" stroke="#1971c2" stroke-width="2" fill="none"></path></g><g stroke-opacity="0.4" fill-opacity="0.4" transform="translate(583.0663601399683 401.2684647182206) rotate(0 -12.124460987417251 38.847762755602304)"><path d="M-8.98 57.9 C-14.8 64.1, -18.16 66.88, -24.13 77.79 M-8.98 57.9 C-14.9 63.41, -17.89 70.41, -24.13 77.79" stroke="#1971c2" stroke-width="2" fill="none"></path></g></g><mask></mask><g stroke-linecap="round"><g stroke-opacity="0.4" fill-opacity="0.4" transform="translate(595.4382591067208 402.2582166355608) rotate(0 30.18743347887562 86.85073074660139)"><path d="M-0.29 0.03 C9.58 29.26, 49.85 145.62, 60.12 174.61 M1.76 -1 C11.36 27.98, 49.15 143.56, 59.04 172.96" stroke="#1971c2" stroke-width="2" fill="none"></path></g><g stroke-opacity="0.4" fill-opacity="0.4" transform="translate(595.4382591067208 402.2582166355608) rotate(0 30.18743347887562 86.85073074660139)"><path d="M43.54 153.34 C49.32 160.36, 56.62 169.86, 59.04 172.96 M43.54 153.34 C48.57 159.13, 53.74 165.12, 59.04 172.96" stroke="#1971c2" stroke-width="2" fill="none"></path></g><g stroke-opacity="0.4" fill-opacity="0.4" transform="translate(595.4382591067208 402.2582166355608) rotate(0 30.18743347887562 86.85073074660139)"><path d="M59.78 147.97 C59.39 156.98, 60.57 168.5, 59.04 172.96 M59.78 147.97 C59.63 155.38, 59.59 163.09, 59.04 172.96" stroke="#1971c2" stroke-width="2" fill="none"></path></g></g><mask></mask><g stroke-opacity="0.4" fill-opacity="0.4" stroke-linecap="round" transform="translate(808.9772352728667 306.59343537233553) rotate(0 59.63255301974618 25)"><path d="M12.5 0 C43.42 -1.15, 74.93 -0.3, 106.77 0 M12.5 0 C34.82 1.14, 57.5 -0.65, 106.77 0 M106.77 0 C116.59 1.04, 118.43 5.85, 119.27 12.5 M106.77 0 C115.7 2, 117.9 4.82, 119.27 12.5 M119.27 12.5 C120.34 21.72, 119.9 30.14, 119.27 37.5 M119.27 12.5 C119.37 21.48, 119.72 29.86, 119.27 37.5 M119.27 37.5 C119.86 44.16, 113.25 49.61, 106.77 50 M119.27 37.5 C120.92 44.59, 113.79 51.43, 106.77 50 M106.77 50 C76.69 49.36, 48.7 48.7, 12.5 50 M106.77 50 C82.65 50.7, 58.7 49.85, 12.5 50 M12.5 50 C5.56 48.99, -0.28 47.11, 0 37.5 M12.5 50 C4.32 49.41, 0.57 44.63, 0 37.5 M0 37.5 C-1.67 27.35, -1.26 19.9, 0 12.5 M0 37.5 C0.63 30.91, 0.15 22.06, 0 12.5 M0 12.5 C1.91 3.69, 4.6 1.2, 12.5 0 M0 12.5 C-1.02 3.67, 6.03 1.08, 12.5 0" stroke="#1971c2" stroke-width="2" fill="none"></path></g><g stroke-opacity="0.4" fill-opacity="0.4" transform="translate(814.6896756827498 311.59343537233553) rotate(0 53.92011260986328 20)"><text x="53.92011260986328" y="14.016" font-family="Virgil, Segoe UI Emoji" font-size="16px" fill="#1971c2" text-anchor="middle" style="white-space: pre;" direction="ltr" dominant-baseline="alphabetic">Multi Leader </text><text x="53.92011260986328" y="34.016" font-family="Virgil, Segoe UI Emoji" font-size="16px" fill="#1971c2" text-anchor="middle" style="white-space: pre;" direction="ltr" dominant-baseline="alphabetic">replication</text></g><g stroke-opacity="0.4" fill-opacity="0.4" transform="translate(933.4385388783942 306.25228065356265) rotate(0 138.8643035888672 10)"><text x="0" y="14.016" font-family="Virgil, Segoe UI Emoji" font-size="16px" fill="#2f9e44" text-anchor="start" style="white-space: pre;" direction="ltr" dominant-baseline="alphabetic">(Better performance &amp; availability)</text></g><g stroke-opacity="0.4" fill-opacity="0.4" transform="translate(949.7694455145072 382.9580542474271) rotate(0 78.83218383789062 50)"><text x="0" y="14.016" font-family="Virgil, Segoe UI Emoji" font-size="16px" fill="#1971c2" text-anchor="start" style="white-space: pre;" direction="ltr" dominant-baseline="alphabetic">Conflict avoidance:</text><text x="0" y="34.016" font-family="Virgil, Segoe UI Emoji" font-size="16px" fill="#1971c2" text-anchor="start" style="white-space: pre;" direction="ltr" dominant-baseline="alphabetic">- last write wins</text><text x="0" y="54.016" font-family="Virgil, Segoe UI Emoji" font-size="16px" fill="#1971c2" text-anchor="start" style="white-space: pre;" direction="ltr" dominant-baseline="alphabetic">- custom logic</text><text x="0" y="74.016" font-family="Virgil, Segoe UI Emoji" font-size="16px" fill="#1971c2" text-anchor="start" style="white-space: pre;" direction="ltr" dominant-baseline="alphabetic">- Causality tracking</text><text x="0" y="94.016" font-family="Virgil, Segoe UI Emoji" font-size="16px" fill="#1971c2" text-anchor="start" style="white-space: pre;" direction="ltr" dominant-baseline="alphabetic">   algorithms.</text></g><g stroke-opacity="0.4" fill-opacity="0.4" stroke-linecap="round" transform="translate(936.9026705890849 378.9990465780664) rotate(0 90.51406282685775 55.94527831801929)"><path d="M27.97 0 C52.19 -1.44, 78.49 1, 153.06 0 M27.97 0 C66.49 1.44, 107.16 0.76, 153.06 0 M153.06 0 C172.52 0.55, 181.06 9.82, 181.03 27.97 M153.06 0 C171.41 1.08, 182.92 9.66, 181.03 27.97 M181.03 27.97 C182.17 41.83, 182.8 55.31, 181.03 83.92 M181.03 27.97 C180.44 50.7, 181.59 73.38, 181.03 83.92 M181.03 83.92 C181.2 102.96, 170.53 110.61, 153.06 111.89 M181.03 83.92 C181.23 100.84, 171.79 112.77, 153.06 111.89 M153.06 111.89 C111.04 113.33, 70.7 111.53, 27.97 111.89 M153.06 111.89 C124.31 111.49, 94.38 111.2, 27.97 111.89 M27.97 111.89 C9.26 112.54, 1.65 101.06, 0 83.92 M27.97 111.89 C8.81 113.1, 2.28 101.03, 0 83.92 M0 83.92 C-0.89 67.25, -0.7 47.5, 0 27.97 M0 83.92 C-0.37 67.31, 0.77 51.1, 0 27.97 M0 27.97 C-0.93 8.74, 10.28 0.95, 27.97 0 M0 27.97 C-0.82 9.67, 8.37 2.09, 27.97 0" stroke="#1971c2" stroke-width="2" fill="none"></path></g><g stroke-opacity="0.4" fill-opacity="0.4" stroke-linecap="round" transform="translate(676.8453543079511 424.8687894944879) rotate(0 58.8902390817409 46.732065855345326)"><path d="M23.37 0 C49.77 -0.69, 77.14 1.76, 94.41 0 M23.37 0 C51.24 0.33, 80.12 1.04, 94.41 0 M94.41 0 C111.05 -0.28, 117.46 8.07, 117.78 23.37 M94.41 0 C110.69 -1.3, 118.48 9.58, 117.78 23.37 M117.78 23.37 C117.82 42.38, 118.68 60.38, 117.78 70.1 M117.78 23.37 C118.45 32.76, 117.22 43.91, 117.78 70.1 M117.78 70.1 C117.42 85.15, 108.38 94.6, 94.41 93.46 M117.78 70.1 C116.34 87.5, 110.38 93.27, 94.41 93.46 M94.41 93.46 C68.08 94.86, 45.02 94.17, 23.37 93.46 M94.41 93.46 C70.44 94.89, 46.43 93.11, 23.37 93.46 M23.37 93.46 C8.13 93.75, -1.22 84.88, 0 70.1 M23.37 93.46 C6.64 92.79, -0.26 87.43, 0 70.1 M0 70.1 C1.46 55.11, -0.21 38.81, 0 23.37 M0 70.1 C0.1 56.32, -0.76 42.6, 0 23.37 M0 23.37 C1.5 8.29, 7.68 -0.31, 23.37 0 M0 23.37 C-1.67 10.01, 9.74 0.21, 23.37 0" stroke="#1971c2" stroke-width="2" fill="none"></path></g><g stroke-opacity="0.4" fill-opacity="0.4" transform="translate(681.8453543079511 429.8687894944879) rotate(0 51.45610809326172 40)"><text x="0" y="14.016" font-family="Virgil, Segoe UI Emoji" font-size="16px" fill="#1971c2" text-anchor="start" style="white-space: pre;" direction="ltr" dominant-baseline="alphabetic">Topology:</text><text x="0" y="34.016" font-family="Virgil, Segoe UI Emoji" font-size="16px" fill="#1971c2" text-anchor="start" style="white-space: pre;" direction="ltr" dominant-baseline="alphabetic">- circular</text><text x="0" y="54.016" font-family="Virgil, Segoe UI Emoji" font-size="16px" fill="#1971c2" text-anchor="start" style="white-space: pre;" direction="ltr" dominant-baseline="alphabetic">- star</text><text x="0" y="74.016" font-family="Virgil, Segoe UI Emoji" font-size="16px" fill="#1971c2" text-anchor="start" style="white-space: pre;" direction="ltr" dominant-baseline="alphabetic">- all to all *</text></g><g stroke-linecap="round"><g stroke-opacity="0.4" fill-opacity="0.4" transform="translate(807.7400453761909 338.41921796711875) rotate(0 -34.8820612702857 41.569580522585625)"><path d="M-0.32 0.92 C-6.83 4.65, -28.73 8.02, -40.17 21.72 C-51.61 35.42, -63.9 72.79, -68.98 83.11 M1.72 0.35 C-4.34 4.33, -26.17 9.16, -38.01 23.17 C-49.85 37.18, -63.86 74.71, -69.33 84.41" stroke="#1971c2" stroke-width="2" fill="none"></path></g></g><mask></mask><g stroke-linecap="round"><g stroke-opacity="0.4" fill-opacity="0.4" transform="translate(869.1046642512827 357.7193803552524) rotate(0 32.909251251561045 29.197681561535518)"><path d="M-0.22 -0.64 C1.7 7.01, 1.33 34.85, 12.2 44.81 C23.07 54.78, 56.16 56.71, 65 59.17 M-1.8 1.64 C-0.02 9.53, 0.14 36.71, 11.68 45.98 C23.23 55.24, 58.54 55.3, 67.46 57.24" stroke="#1971c2" stroke-width="2" fill="none"></path></g></g><mask></mask><g stroke-linecap="round"><g stroke-opacity="0.4" fill-opacity="0.4" transform="translate(752.769456818218 253.87444570481196) rotate(0 -56.69494670387007 24.374866957751465)"><path d="M0.17 0.59 C-18.68 8.89, -94.85 41.28, -113.77 49.41 M-1.19 -0.15 C-20.18 7.84, -96.11 39.72, -114.92 47.64" stroke="#1971c2" stroke-width="2" fill="none"></path></g><g stroke-opacity="0.4" fill-opacity="0.4" transform="translate(752.769456818218 253.87444570481196) rotate(0 -56.69494670387007 24.374866957751465)"><path d="M-96.57 30.65 C-100.17 34.24, -104.57 39.16, -114.92 47.64 M-96.57 30.65 C-104.03 36.87, -109.57 42.65, -114.92 47.64" stroke="#1971c2" stroke-width="2" fill="none"></path></g><g stroke-opacity="0.4" fill-opacity="0.4" transform="translate(752.769456818218 253.87444570481196) rotate(0 -56.69494670387007 24.374866957751465)"><path d="M-89.95 46.42 C-95.13 46.12, -101.16 47.16, -114.92 47.64 M-89.95 46.42 C-99.61 47.02, -107.5 47.22, -114.92 47.64" stroke="#1971c2" stroke-width="2" fill="none"></path></g></g><mask></mask><g stroke-linecap="round"><g stroke-opacity="0.4" fill-opacity="0.4" transform="translate(760.231953343862 255.280056910543) rotate(0 28.207929644195247 24.991235912839727)"><path d="M-0.23 -0.96 C9.08 7.67, 46.96 42.37, 56.41 50.94 M-1.81 1.15 C7.3 9.53, 45.87 41.45, 55.46 49.32" stroke="#1971c2" stroke-width="2" fill="none"></path></g><g stroke-opacity="0.4" fill-opacity="0.4" transform="translate(760.231953343862 255.280056910543) rotate(0 28.207929644195247 24.991235912839727)"><path d="M31.9 40.95 C38.33 43.87, 49.62 46.84, 55.46 49.32 M31.9 40.95 C40 43.51, 48.41 47.37, 55.46 49.32" stroke="#1971c2" stroke-width="2" fill="none"></path></g><g stroke-opacity="0.4" fill-opacity="0.4" transform="translate(760.231953343862 255.280056910543) rotate(0 28.207929644195247 24.991235912839727)"><path d="M42.8 27.77 C45.39 35.19, 52.94 42.69, 55.46 49.32 M42.8 27.77 C47.27 34.89, 51.99 43.22, 55.46 49.32" stroke="#1971c2" stroke-width="2" fill="none"></path></g></g><mask></mask><g stroke-opacity="0.4" fill-opacity="0.4" transform="translate(320.78210204481866 290.4162499761197) rotate(0 88.4961929321289 10)"><text x="0" y="14.016" font-family="Virgil, Segoe UI Emoji" font-size="16px" fill="#e03131" text-anchor="start" style="white-space: pre;" direction="ltr" dominant-baseline="alphabetic">(primary node is SPOF)</text></g><g stroke-opacity="0.4" fill-opacity="0.4" stroke-linecap="round" transform="translate(946.5527517831517 183.8641976221524) rotate(0 59.63255301974618 35)"><path d="M17.5 0 C46.98 -0.36, 77.8 -0.6, 101.77 0 M17.5 0 C36.28 1.48, 55.47 0.93, 101.77 0 M101.77 0 C112.7 -1.16, 119.48 6.4, 119.27 17.5 M101.77 0 C114.55 -0.9, 120.89 4.31, 119.27 17.5 M119.27 17.5 C120.64 26.9, 120.35 37.85, 119.27 52.5 M119.27 17.5 C119.56 28.88, 118.98 40.74, 119.27 52.5 M119.27 52.5 C120.22 64.03, 112.11 69.39, 101.77 70 M119.27 52.5 C120.94 66.03, 115.25 68.65, 101.77 70 M101.77 70 C74.9 70.67, 49.4 67.4, 17.5 70 M101.77 70 C71.77 69.11, 42.2 69.38, 17.5 70 M17.5 70 C6.75 70.86, 0.36 64.78, 0 52.5 M17.5 70 C3.74 68.16, 1.57 65.92, 0 52.5 M0 52.5 C1.71 43.94, 0.55 35.44, 0 17.5 M0 52.5 C0.08 43.85, -0.63 36.63, 0 17.5 M0 17.5 C-1.8 6.53, 3.93 1.86, 17.5 0 M0 17.5 C1.35 7.54, 7.51 -1.57, 17.5 0" stroke="#1971c2" stroke-width="2" fill="none"></path></g><g stroke-opacity="0.4" fill-opacity="0.4" transform="translate(955.0811940851243 188.8641976221524) rotate(0 51.10411071777344 30)"><text x="51.10411071777344" y="14.016" font-family="Virgil, Segoe UI Emoji" font-size="16px" fill="#1971c2" text-anchor="middle" style="white-space: pre;" direction="ltr" dominant-baseline="alphabetic">Leaderless/ </text><text x="51.10411071777344" y="34.016" font-family="Virgil, Segoe UI Emoji" font-size="16px" fill="#1971c2" text-anchor="middle" style="white-space: pre;" direction="ltr" dominant-baseline="alphabetic">Peer-Peer  </text><text x="51.10411071777344" y="54.016" font-family="Virgil, Segoe UI Emoji" font-size="16px" fill="#1971c2" text-anchor="middle" style="white-space: pre;" direction="ltr" dominant-baseline="alphabetic">with Quorums</text></g><g stroke-opacity="0.4" fill-opacity="0.4" transform="translate(1094.768101404845 199.35907358082247) rotate(0 46.46410369873047 10)"><text x="0" y="14.016" font-family="Virgil, Segoe UI Emoji" font-size="16px" fill="#1971c2" text-anchor="start" style="white-space: pre;" direction="ltr" dominant-baseline="alphabetic">(cassandra)</text></g><g stroke-opacity="0.4" fill-opacity="0.4" transform="translate(1096.2527292808552 228.0618791836879) rotate(0 173.58436584472656 10)"><text x="0" y="14.016" font-family="Virgil, Segoe UI Emoji" font-size="16px" fill="#1971c2" text-anchor="start" style="white-space: pre;" direction="ltr" dominant-baseline="alphabetic">(total_nodes &lt; write_nodes + read_nodes)</text></g><g stroke-linecap="round"><g stroke-opacity="0.4" fill-opacity="0.4" transform="translate(762.190681241548 253.87444570481196) rotate(0 90.8201263844594 -9.234221905675902)"><path d="M0.69 0.41 C19.66 3.98, 84.48 26.91, 114.71 20.4 C144.94 13.89, 170.91 -29.11, 182.07 -38.64 M-0.41 -0.42 C18.88 2.93, 86.77 25.13, 117.1 18.9 C147.42 12.67, 170.73 -28.2, 181.53 -37.82" stroke="#1971c2" stroke-width="2" fill="none"></path></g><g stroke-opacity="0.4" fill-opacity="0.4" transform="translate(762.190681241548 253.87444570481196) rotate(0 90.8201263844594 -9.234221905675902)"><path d="M172.89 -14.36 C177 -24.21, 181.52 -31.24, 181.53 -37.82 M172.89 -14.36 C174.06 -19.19, 176.8 -24.33, 181.53 -37.82" stroke="#1971c2" stroke-width="2" fill="none"></path></g><g stroke-opacity="0.4" fill-opacity="0.4" transform="translate(762.190681241548 253.87444570481196) rotate(0 90.8201263844594 -9.234221905675902)"><path d="M159.83 -25.4 C168.73 -31.2, 178.13 -34.1, 181.53 -37.82 M159.83 -25.4 C163.88 -27.89, 169.51 -30.59, 181.53 -37.82" stroke="#1971c2" stroke-width="2" fill="none"></path></g></g><mask></mask><g stroke-linecap="round"><g stroke-opacity="0.4" fill-opacity="0.4" transform="translate(769.1397205999235 68.21694453324771) rotate(0 -35.38363104491168 21.279666222814022)"><path d="M0.38 -0.45 C-11.48 6.79, -59.45 35.73, -71.28 42.79 M-0.88 -1.74 C-12.94 5.18, -60.77 33.36, -72.49 40.79" stroke="#1971c2" stroke-width="2" fill="none"></path></g><g stroke-opacity="0.4" fill-opacity="0.4" transform="translate(769.1397205999235 68.21694453324771) rotate(0 -35.38363104491168 21.279666222814022)"><path d="M-56.85 21.28 C-62.28 26.18, -65.71 33.06, -72.49 40.79 M-56.85 21.28 C-61.04 24.97, -65.2 29.82, -72.49 40.79" stroke="#1971c2" stroke-width="2" fill="none"></path></g><g stroke-opacity="0.4" fill-opacity="0.4" transform="translate(769.1397205999235 68.21694453324771) rotate(0 -35.38363104491168 21.279666222814022)"><path d="M-47.97 35.9 C-55.91 36.55, -61.93 39.18, -72.49 40.79 M-47.97 35.9 C-54.24 35.97, -60.57 37.25, -72.49 40.79" stroke="#1971c2" stroke-width="2" fill="none"></path></g></g><mask></mask><g stroke-linecap="round"><g stroke-opacity="0.4" fill-opacity="0.4" transform="translate(768.1499686825834 67.72206857457762) rotate(0 35.87850700358172 20.042476326138775)"><path d="M0.9 1.14 C12.7 7.78, 59.32 34.54, 71.04 40.84 M-0.09 0.69 C12.09 6.91, 61.67 32.62, 73.38 39.12" stroke="#1971c2" stroke-width="2" fill="none"></path></g><g stroke-opacity="0.4" fill-opacity="0.4" transform="translate(768.1499686825834 67.72206857457762) rotate(0 35.87850700358172 20.042476326138775)"><path d="M48.63 35.61 C58.4 35.35, 65.61 36.77, 73.38 39.12 M48.63 35.61 C53.24 37, 57.79 36.46, 73.38 39.12" stroke="#1971c2" stroke-width="2" fill="none"></path></g><g stroke-opacity="0.4" fill-opacity="0.4" transform="translate(768.1499686825834 67.72206857457762) rotate(0 35.87850700358172 20.042476326138775)"><path d="M56.68 20.52 C64.02 25.1, 68.68 31.3, 73.38 39.12 M56.68 20.52 C59.53 25.03, 62.42 27.59, 73.38 39.12" stroke="#1971c2" stroke-width="2" fill="none"></path></g></g><mask></mask><g stroke-opacity="0.4" fill-opacity="0.4" transform="translate(855.2481374085198 86.03247904537108) rotate(0 114.85624694824219 10)"><text x="0" y="14.016" font-family="Virgil, Segoe UI Emoji" font-size="16px" fill="#2f9e44" text-anchor="start" style="white-space: pre;" direction="ltr" dominant-baseline="alphabetic">(high throughput; low latency)</text></g><g stroke-opacity="0.4" fill-opacity="0.4" transform="translate(929.9744071677039 116.71478848291687) rotate(0 98.46419525146484 10)"><text x="0" y="14.016" font-family="Virgil, Segoe UI Emoji" font-size="16px" fill="#e03131" text-anchor="start" style="white-space: pre;" direction="ltr" dominant-baseline="alphabetic">(consistency compromised)</text></g><g stroke-opacity="0.4" fill-opacity="0.4" transform="translate(532.0941363969487 85.04272712803089) rotate(0 66.71214294433594 10)"><text x="0" y="14.016" font-family="Virgil, Segoe UI Emoji" font-size="16px" fill="#2f9e44" text-anchor="start" style="white-space: pre;" direction="ltr" dominant-baseline="alphabetic">(high consistency)</text></g><g stroke-opacity="0.4" fill-opacity="0.4" transform="translate(330.1847452595505 117.20966444158697) rotate(0 143.03231811523438 10)"><text x="0" y="14.016" font-family="Virgil, Segoe UI Emoji" font-size="16px" fill="#e03131" text-anchor="start" style="white-space: pre;" direction="ltr" dominant-baseline="alphabetic">(high latency in distributed settings)</text></g><g stroke-opacity="0.4" fill-opacity="0.4" transform="translate(341.07201635029264 341.3884737191393) rotate(0 85.4081802368164 20)"><text x="0" y="14.016" font-family="Virgil, Segoe UI Emoji" font-size="16px" fill="#e03131" text-anchor="start" style="white-space: pre;" direction="ltr" dominant-baseline="alphabetic">(Bad for write heavy;</text><text x="0" y="34.016" font-family="Virgil, Segoe UI Emoji" font-size="16px" fill="#e03131" text-anchor="start" style="white-space: pre;" direction="ltr" dominant-baseline="alphabetic">Bad in async mode)</text></g><g stroke-opacity="0.4" fill-opacity="0.4" transform="translate(937.8924225064259 331.49095454573745) rotate(0 211.54440307617188 10)"><text x="0" y="14.016" font-family="Virgil, Segoe UI Emoji" font-size="16px" fill="#e03131" text-anchor="start" style="white-space: pre;" direction="ltr" dominant-baseline="alphabetic">(Deal with write conflicts; consistency is compromised)</text></g><g stroke-opacity="0.4" fill-opacity="0.4" transform="translate(306.43069924338647 266.6622039599552) rotate(0 114.792236328125 10)"><text x="0" y="14.016" font-family="Virgil, Segoe UI Emoji" font-size="16px" fill="#2f9e44" text-anchor="start" style="white-space: pre;" direction="ltr" dominant-baseline="alphabetic">(low implementation overhead)</text></g><g stroke-linecap="round"><g stroke-opacity="0.4" fill-opacity="0.4" transform="translate(767.655092723913 69.70157240925799) rotate(0 -0.4948759586700362 55.67354535038552)"><path d="M0.19 -1.19 C0.03 17.16, 0.01 92.34, -0.26 111.01 M-1.18 0.79 C-1.49 19.24, -0.62 93.86, -0.82 112.37" stroke="#1971c2" stroke-width="2" fill="none"></path></g></g><mask></mask><g stroke-opacity="0.4" fill-opacity="0.4" transform="translate(409.8597746054354 512.6155554189916) rotate(0 39.43208312988281 10)"><text x="0" y="14.016" font-family="Virgil, Segoe UI Emoji" font-size="16px" fill="#1971c2" text-anchor="start" style="white-space: pre;" direction="ltr" dominant-baseline="alphabetic">(postgres)</text></g><g stroke-opacity="0.4" fill-opacity="0.4" transform="translate(539.8922481203583 185.58634505595757) rotate(0 79.30416107177734 30)"><text x="0" y="14.016" font-family="Virgil, Segoe UI Emoji" font-size="16px" fill="#1971c2" text-anchor="start" style="white-space: pre;" direction="ltr" dominant-baseline="alphabetic">(Do we care about </text><text x="0" y="34.016" font-family="Virgil, Segoe UI Emoji" font-size="16px" fill="#1971c2" text-anchor="start" style="white-space: pre;" direction="ltr" dominant-baseline="alphabetic">read throughput or</text><text x="0" y="54.016" font-family="Virgil, Segoe UI Emoji" font-size="16px" fill="#1971c2" text-anchor="start" style="white-space: pre;" direction="ltr" dominant-baseline="alphabetic">write throughput)</text></g><g stroke-opacity="0.4" fill-opacity="0.4" transform="translate(577.2510449407748 10) rotate(0 188.88836669921875 10)"><text x="0" y="14.016" font-family="Virgil, Segoe UI Emoji" font-size="16px" fill="#1971c2" text-anchor="start" style="white-space: pre;" direction="ltr" dominant-baseline="alphabetic">(Do we care more about throughput or latency)</text></g></svg>